<?xml version="1.0" encoding="utf-8"?>
<!-- Generator: Adobe Illustrator 24.1.0, SVG Export Plug-In . SVG Version: 6.00 Build 0)  -->
<svg version="1.1" id="Layer_1" xmlns="http://www.w3.org/2000/svg" xmlns:xlink="http://www.w3.org/1999/xlink" x="0px" y="0px"
	 viewBox="0 0 151 151" style="enable-background:new 0 0 151 151;" xml:space="preserve">
<style type="text/css">
	.st0{fill:#436AB2;}
	.st1{fill:none;}
	.st2{fill:none;stroke:#7AC25B;}
	.st3{fill:#7AC25B;}
	.st4{fill:#11B37D;}
	.st5{fill:#B1D235;}
	.st6{fill:#139346;}
	.st7{fill:#F6F6F6;}
	.st8{fill:#8F54A1;}
	.st9{enable-background:new    ;}
	.st10{fill:#CBCBCA;}
	.st11{fill:#FFFFFF;}
	.st12{fill:#CC5641;}
	.st13{fill:#4D4D4E;}
	.st14{fill:#F59595;}
	.st15{fill:#EE6161;}
	.st16{fill:#F8B1B1;}
	.st17{fill:#F37C7C;}
	.st18{fill:none;stroke:#FFFFFF;stroke-width:4;}
	.st19{fill:none;stroke:#FFFFFF;stroke-width:3;}
</style>
<g>
	<circle id="Ellipse_70" class="st3" cx="75.5" cy="75.5" r="75.5"/>
	<g>
		<path class="st11" d="M108.26,72.13c-1.89-4.1-4.2-8.03-6.86-11.68c-5.51-7.47-11.71-14.5-18.4-20.88
			c-5.16-5.16-7.02-5.83-7.47-5.91L75.2,33.6l-0.3,0.15c-0.12,0.06-2.92,1.47-7.42,5.96c-4.98,4.8-9.73,9.95-14.09,15.3
			c-4.3,5.07-7.93,10.68-10.79,16.66c-1.39,2.84-2.25,5.88-2.54,9.06c-0.33,5.26,0.66,10.57,2.87,15.34
			c5.76,12.78,18.64,20.78,32.29,20.78c2.39,0,4.81-0.25,7.21-0.76c13.06-2.8,21.95-10.56,26.41-23.03
			C111.47,86.34,111.26,78.71,108.26,72.13z M102.79,89.48c-3.47,11.16-11.07,17.91-22.61,20.07c-12.82,2.35-25.56-4.3-30.97-16.18
			c-1.67-3.59-2.48-7.57-2.37-11.49c0.19-2.77,0.94-5.43,2.24-7.91c2.69-5.42,6.05-10.5,10-15.1c5.02-6.06,10.48-11.84,16.27-17.2
			c0.72,0.72,1.45,1.44,2.17,2.15c2,1.98,4.07,4.03,6.05,6.1c5.7,5.75,10.81,12.12,15.2,18.95c2.21,3.29,3.8,6.91,4.71,10.71
			C104.11,82.87,103.87,86.28,102.79,89.48z"/>
		<path class="st11" d="M77.62,54.9c-0.63-0.61-1.46-0.94-2.35-0.92c-0.88,0.02-1.7,0.38-2.33,1.04
			c-2.36,2.63-14.13,16.18-14.13,24.34c0.02,7.84,5.68,14.63,13.31,16.14v6.04l0.01,0.17c0.07,1.72,1.49,3.09,3.21,3.09
			c0.02,0,0.04,0,0.06,0c0.86-0.02,1.66-0.36,2.26-0.98s0.92-1.43,0.9-2.27v-6.04c7.62-1.51,13.28-8.3,13.3-16.14
			c0-8.18-11.77-21.71-14.16-24.37L77.62,54.9z M75.34,76.07c-0.02,0-0.04,0-0.05,0c-1.77,0.03-3.19,1.5-3.16,3.26v9.56
			c-4.04-1.37-6.87-5.21-6.87-9.56c0-3.44,5.09-11.15,10.09-17.24c5,6.08,10.09,13.79,10.09,17.24c-0.01,4.35-2.83,8.19-6.87,9.56
			v-9.66C78.53,77.48,77.09,76.07,75.34,76.07z"/>
	</g>
</g>
</svg>
