<?xml version="1.0" encoding="utf-8"?>
<!-- Generator: Adobe Illustrator 24.1.0, SVG Export Plug-In . SVG Version: 6.00 Build 0)  -->
<svg version="1.1" id="Layer_1" xmlns="http://www.w3.org/2000/svg" xmlns:xlink="http://www.w3.org/1999/xlink" x="0px" y="0px"
	 viewBox="0 0 109 109" style="enable-background:new 0 0 109 109;" xml:space="preserve">
<style type="text/css">
	.st0{fill:#436AB2;}
	.st1{fill:none;}
	.st2{fill:none;stroke:#7AC25B;}
	.st3{fill:#7AC25B;}
	.st4{fill:#11B37D;}
	.st5{fill:#B1D235;}
	.st6{fill:#139346;}
	.st7{fill:#F6F6F6;}
	.st8{fill:#8F54A1;}
	.st9{enable-background:new    ;}
	.st10{fill:#CBCBCA;}
	.st11{fill:#FFFFFF;}
	.st12{fill:#CC5641;}
	.st13{fill:#4D4D4E;}
	.st14{fill:#F59595;}
	.st15{fill:#EE6161;}
	.st16{fill:#F8B1B1;}
	.st17{fill:#F37C7C;}
	.st18{fill:none;stroke:#FFFFFF;stroke-width:4;}
	.st19{fill:none;stroke:#FFFFFF;stroke-width:3;}
</style>
<g id="Group_1242_1_" transform="translate(-535 -994.641)">
	<g id="Ellipse_69_2_" transform="translate(535 994.641)">
		<circle class="st1" cx="54.5" cy="54.5" r="54.5"/>
		<circle class="st18" cx="54.5" cy="54.5" r="52.5"/>
	</g>
	<g id="Group_1208_1_" transform="translate(561.62 1017.304)">
		<g id="Group_1205_1_" transform="translate(0 0)">
			<path id="Path_7930_1_" class="st11" d="M27.84,0H18.8c-4.59-0.03-8.78,2.58-10.79,6.7c-2.36,0.51-4.04,2.59-4.05,5v12.84
				c0,2.08,1.34,3.92,3.32,4.55c0.31,5.19,3.37,9.81,8.01,12.14c-0.02,2.14-1.77,3.87-3.91,3.87C5.1,45.11,0.01,50.2,0,56.48v6.23
				c0,0.86,0.69,1.55,1.55,1.55s1.55-0.69,1.55-1.55v-6.23c0.01-4.57,3.71-8.28,8.28-8.28c0.47,0,0.94-0.05,1.4-0.14
				c1.64,2.7,4.39,4.53,7.52,4.99v4.39c0,0.86,0.69,1.55,1.55,1.55c0.86,0,1.55-0.69,1.55-1.55v-4.39c1.95-0.29,3.78-1.11,5.28-2.38
				c0.65-0.55,0.74-1.53,0.19-2.18l0,0c-0.55-0.65-1.53-0.74-2.18-0.19c-3.17,2.67-7.9,2.27-10.58-0.9
				c-0.17-0.2-0.33-0.41-0.48-0.63c1.42-1.08,2.37-2.66,2.66-4.42c4.26,1.09,8.78,0.18,12.28-2.47c3.69-2.71,5.87-7.02,5.87-11.61
				v-8.63c0-4.35-3.53-7.87-7.88-7.87H15.12c-4.35,0-7.87,3.53-7.88,7.88v5.69c-0.13-0.24-0.2-0.51-0.2-0.78V11.7
				c0-1.11,0.9-2.01,2.01-2.01c0.63,0,1.2-0.38,1.44-0.97c1.35-3.4,4.64-5.63,8.3-5.62h9.04c4.93,0.01,8.93,4,8.93,8.94v12.51
				c0,0.86,0.69,1.55,1.55,1.55c0.86,0,1.55-0.69,1.55-1.55V12.03C39.87,5.39,34.48,0.01,27.84,0z M10.35,28.19v-8.55
				c0-2.64,2.14-4.77,4.78-4.78h13.44c2.64,0,4.78,2.14,4.78,4.78v8.55c0,6.35-5.15,11.5-11.5,11.5S10.35,34.54,10.35,28.19z"/>
			<g id="Group_1204_1_" transform="translate(34.01 33.58)">
				<path id="Path_7931_1_" class="st11" d="M8.99,22.95v5.18l1.93-1.07l1.93,1.07v-5.18C11.57,23.17,10.27,23.17,8.99,22.95z"/>
				<path id="Path_7932_1_" class="st11" d="M14.13,28.85l2.26,1.25c0.31,0.17,0.7,0.06,0.87-0.25c0.05-0.1,0.08-0.2,0.08-0.31
					v-8.28c-1,0.62-2.08,1.1-3.21,1.41V28.85z"/>
				<path id="Path_7933_1_" class="st11" d="M4.49,29.54c0,0.35,0.29,0.64,0.64,0.64c0.11,0,0.22-0.03,0.31-0.08l2.26-1.25v-6.17
					c-1.13-0.31-2.21-0.79-3.21-1.41V29.54z"/>
				<path id="Path_7934_1_" class="st11" d="M10.92,5.14c-3.19,0-5.78,2.59-5.78,5.78s2.59,5.78,5.78,5.78
					c3.19,0,5.78-2.59,5.78-5.78S14.11,5.14,10.92,5.14L10.92,5.14z M13.88,9.39l-3,3.85c-0.22,0.28-0.62,0.33-0.9,0.11l-0.01-0.01
					l-1.9-1.54c-0.28-0.21-0.34-0.62-0.13-0.9c0.21-0.28,0.62-0.34,0.9-0.13c0,0,0.01,0.01,0.01,0.01l0.02,0.02l1.39,1.13l2.6-3.34
					c0.21-0.28,0.61-0.34,0.9-0.13s0.34,0.61,0.13,0.9L13.88,9.39L13.88,9.39z"/>
				<path id="Path_7935_1_" class="st11" d="M10.92,0C4.89,0,0,4.89,0,10.92s4.89,10.92,10.92,10.92c6.03,0,10.92-4.89,10.92-10.92
					c0,0,0,0,0,0C21.83,4.89,16.95,0,10.92,0z M10.92,17.98c-3.9,0-7.06-3.16-7.06-7.06s3.16-7.06,7.06-7.06
					c3.9,0,7.06,3.16,7.06,7.06S14.82,17.98,10.92,17.98L10.92,17.98L10.92,17.98z"/>
			</g>
		</g>
	</g>
</g>
</svg>
