<?xml version="1.0" encoding="utf-8"?>
<!-- Generator: Adobe Illustrator 24.1.0, SVG Export Plug-In . SVG Version: 6.00 Build 0)  -->
<svg version="1.1" id="Layer_1" xmlns="http://www.w3.org/2000/svg" xmlns:xlink="http://www.w3.org/1999/xlink" x="0px" y="0px"
	 viewBox="0 0 26.44 26.44" style="enable-background:new 0 0 26.44 26.44;" xml:space="preserve">
<style type="text/css">
	.st0{fill:#436AB2;}
	.st1{fill:none;}
	.st2{fill:none;stroke:#7AC25B;}
	.st3{fill:#7AC25B;}
	.st4{fill:#11B37D;}
	.st5{fill:#B1D235;}
	.st6{fill:#139346;}
	.st7{fill:#F6F6F6;}
	.st8{fill:#8F54A1;}
	.st9{enable-background:new    ;}
	.st10{fill:#CBCBCA;}
	.st11{fill:#FFFFFF;}
	.st12{fill:#CC5641;}
	.st13{fill:#4D4D4E;}
	.st14{fill:#F59595;}
	.st15{fill:#EE6161;}
	.st16{fill:#F8B1B1;}
	.st17{fill:#F37C7C;}
	.st18{fill:none;stroke:#FFFFFF;stroke-width:4;}
	.st19{fill:none;stroke:#FFFFFF;stroke-width:3;}
</style>
<path id="Path_7290" class="st3" d="M24.32,17.35c-1.6,0-3.19-0.25-4.72-0.75c-0.73-0.24-1.53-0.07-2.1,0.44l-2.97,2.24
	c-3.2-1.59-5.79-4.19-7.38-7.39L9.33,9c0.57-0.57,0.77-1.4,0.53-2.16C9.35,5.31,9.1,3.72,9.1,2.12C9.1,0.95,8.15,0,6.98,0H2.12
	C0.95,0,0,0.95,0,2.12c0.02,13.42,10.89,24.3,24.32,24.32c1.17,0,2.12-0.95,2.12-2.12v-4.84C26.43,18.3,25.49,17.35,24.32,17.35z"/>
</svg>
