<?xml version="1.0" encoding="utf-8"?>
<!-- Generator: Adobe Illustrator 24.1.0, SVG Export Plug-In . SVG Version: 6.00 Build 0)  -->
<svg version="1.1" id="Layer_1" xmlns="http://www.w3.org/2000/svg" xmlns:xlink="http://www.w3.org/1999/xlink" x="0px" y="0px"
	 viewBox="0 0 134.06 145.49" style="enable-background:new 0 0 134.06 145.49;" xml:space="preserve">
<style type="text/css">
	.st0{fill:#436AB2;}
	.st1{fill:none;}
	.st2{fill:none;stroke:#7AC25B;}
	.st3{fill:#7AC25B;}
	.st4{fill:#11B37D;}
	.st5{fill:#B1D235;}
	.st6{fill:#139346;}
	.st7{fill:#F6F6F6;}
	.st8{fill:#8F54A1;}
	.st9{enable-background:new    ;}
	.st10{fill:#CBCBCA;}
	.st11{fill:#FFFFFF;}
	.st12{fill:#CC5641;}
	.st13{fill:#4D4D4E;}
	.st14{fill:#F59595;}
	.st15{fill:#EE6161;}
	.st16{fill:#F8B1B1;}
	.st17{fill:#F37C7C;}
	.st18{fill:none;stroke:#FFFFFF;stroke-width:4;}
	.st19{fill:none;stroke:#FFFFFF;stroke-width:3;}
</style>
<g id="Group_1024" transform="translate(-20.115)">
	<path id="Path_7532" class="st0" d="M147.8,36.26h-1.48c-0.87-3.06-2.09-6-3.64-8.78l1.04-1.05c2.48-2.49,2.48-6.52,0-9.01
		l-6.98-6.98c-2.48-2.49-6.51-2.5-9-0.01c0,0,0,0-0.01,0.01l-1.05,1.05c-2.77-1.55-5.72-2.77-8.78-3.64V6.37
		c0-3.52-2.85-6.36-6.37-6.37h-9.88c-3.52,0-6.36,2.85-6.37,6.37v1.47c-3.06,0.87-6.01,2.09-8.78,3.65l-1.04-1.04
		c-2.48-2.49-6.51-2.49-9-0.01c0,0,0,0-0.01,0.01l-6.98,6.98c-2.48,2.49-2.48,6.51,0,9l1.05,1.05c-1.55,2.77-2.77,5.72-3.64,8.78
		h-1.48c-3.52,0-6.36,2.85-6.37,6.37v9.88c0,3.52,2.85,6.37,6.37,6.37h1.48c0.87,3.06,2.09,6,3.64,8.78l-1.05,1.05
		c-2.48,2.49-2.48,6.51,0,9l6.98,6.98c1.19,1.2,2.82,1.88,4.51,1.87l0,0c1.69,0.01,3.31-0.67,4.5-1.86l1.05-1.05
		c2.78,1.55,5.72,2.77,8.78,3.64v1.48c0,3.52,2.85,6.36,6.37,6.37h9.88c3.52,0,6.37-2.85,6.37-6.37v-1.48
		c3.06-0.87,6-2.09,8.78-3.64l1.04,1.04c2.48,2.49,6.51,2.5,9,0.01c0,0,0,0,0.01-0.01l6.99-6.99c2.48-2.49,2.48-6.51,0-9l-1.05-1.05
		c1.55-2.78,2.77-5.72,3.64-8.78h1.48c3.52,0,6.37-2.85,6.37-6.37v-9.88C154.17,39.11,151.32,36.26,147.8,36.26z M112.24,88.76
		c-0.01,0.38-0.31,0.68-0.69,0.69h-9.88c-0.38-0.01-0.68-0.31-0.69-0.69v-21.6c0-1.19-0.74-2.25-1.85-2.66
		c-10.09-3.7-15.28-14.88-11.58-24.97c1.41-3.84,3.99-7.14,7.37-9.43c0.24-0.16,0.45-0.3,0.64-0.41c-0.01,0.37-0.04,0.72-0.05,0.9
		c-0.02,0.29-0.04,0.52-0.04,0.74v13.42c0.02,6.17,4.8,11.28,10.95,11.7c0.13,0.01,0.25,0.01,0.38,0
		c6.15-0.43,10.93-5.53,10.94-11.7V31.34c0-0.23-0.02-0.45-0.04-0.74c-0.01-0.18-0.04-0.54-0.05-0.91c0.18,0.11,0.4,0.24,0.64,0.41
		c8.9,6.02,11.24,18.13,5.21,27.03c-2.29,3.38-5.58,5.96-9.41,7.36c-1.11,0.41-1.85,1.48-1.85,2.66L112.24,88.76L112.24,88.76z
		 M148.49,52.51c-0.01,0.38-0.31,0.68-0.69,0.69h-3.68c-1.33,0-2.48,0.92-2.77,2.21c-0.89,3.96-2.46,7.74-4.63,11.17
		c-0.71,1.12-0.55,2.59,0.39,3.53l2.61,2.61c0.26,0.27,0.26,0.7,0,0.97l-7,6.99c-0.27,0.26-0.7,0.26-0.96-0.01l-2.61-2.61
		c-0.94-0.94-2.41-1.1-3.53-0.39c-2.41,1.53-4.99,2.75-7.7,3.66V69.05c12.61-5.82,18.12-20.75,12.3-33.36
		c-1.92-4.16-4.93-7.71-8.72-10.28c-1.06-0.72-4.28-2.92-7.09-1.3c-2.76,1.59-2.49,5.32-2.37,6.91c0.01,0.14,0.02,0.25,0.02,0.32
		v13.41c0.3,3.01-1.9,5.69-4.91,5.99c-3.01,0.3-5.69-1.9-5.99-4.91c-0.04-0.36-0.04-0.73,0-1.09V31.36c0-0.09,0.01-0.2,0.02-0.34
		c0.12-1.59,0.4-5.32-2.37-6.91c-2.81-1.62-6.04,0.58-7.1,1.3c-11.49,7.79-14.49,23.42-6.7,34.92c2.57,3.79,6.13,6.81,10.29,8.73
		v12.28c-2.71-0.9-5.3-2.13-7.71-3.66c-1.12-0.71-2.59-0.55-3.53,0.39l-2.62,2.62c-0.27,0.26-0.7,0.26-0.96-0.01l-6.98-6.98
		c-0.26-0.27-0.26-0.7,0-0.97l2.61-2.61c0.94-0.94,1.1-2.4,0.39-3.53c-2.17-3.43-3.74-7.21-4.63-11.17
		c-0.29-1.3-1.44-2.22-2.77-2.22h-3.69c-0.38-0.01-0.68-0.31-0.69-0.69v-9.88c0.01-0.38,0.31-0.68,0.69-0.69h3.69
		c1.33,0,2.48-0.92,2.77-2.22c0.89-3.96,2.46-7.74,4.63-11.17c0.71-1.12,0.55-2.59-0.39-3.53l-2.61-2.61c-0.26-0.27-0.26-0.7,0-0.97
		l6.99-6.99c0.27-0.26,0.7-0.26,0.96,0.01l2.61,2.61c0.94,0.94,2.4,1.1,3.53,0.39c3.43-2.18,7.22-3.74,11.18-4.64
		c1.3-0.29,2.22-1.44,2.22-2.77V6.37c0.01-0.38,0.31-0.68,0.69-0.69h9.88c0.38,0.01,0.68,0.31,0.69,0.69v3.68
		c0,1.33,0.92,2.48,2.21,2.77c3.96,0.89,7.74,2.46,11.17,4.64c1.12,0.71,2.59,0.55,3.53-0.39l2.62-2.62
		c0.27-0.26,0.7-0.26,0.96,0.01l6.99,6.98c0.26,0.27,0.26,0.7,0,0.97l-2.61,2.61c-0.94,0.94-1.1,2.4-0.39,3.53
		c2.17,3.43,3.74,7.21,4.63,11.17c0.29,1.29,1.44,2.21,2.77,2.21h3.68c0.38,0.01,0.68,0.31,0.69,0.69L148.49,52.51L148.49,52.51z"/>
	<path id="Path_7533" class="st0" d="M123.17,125.12c-1.12,1.1-1.14,2.9-0.04,4.02s2.9,1.14,4.02,0.04
		c0.01-0.01,0.03-0.03,0.04-0.04l0.01-0.01c1.1-1.12,1.08-2.92-0.05-4.02C126.04,124.03,124.27,124.03,123.17,125.12L123.17,125.12z
		"/>
	<path id="Path_7534" class="st3" d="M136.33,97.59l-22.56,11.58c-1.98-2.06-4.7-3.22-7.56-3.22H90.76c-0.37,0.02-0.73,0-1.09-0.07
		c-0.3-0.23-0.58-0.47-0.84-0.74l-0.14-0.13c-12.5-11.77-23.07-11.03-35.08-6.29c-1.22,0.61-2.57,0.9-3.93,0.85h-3.5
		c-1.02-3.09-3.91-5.17-7.16-5.18H27.65c-4.16,0.01-7.54,3.38-7.54,7.55v29.83c0,4.16,3.38,7.53,7.54,7.54h11.36
		c3.25,0,6.14-2.09,7.16-5.17h6.39c0.42-0.02,0.83,0.04,1.22,0.18c0.24,0.07,0.53,0.15,0.9,0.25l29.41,7.87
		c1.3,0.35,2.49,0.7,3.64,1.03c3.77,1.09,6.93,2.01,10.24,2.01c3.73,0,7.63-1.17,12.76-4.59l0.07-0.05l5.61-4
		c1.26-0.93,1.53-2.71,0.6-3.97c-0.91-1.23-2.64-1.52-3.9-0.65l-5.58,3.98c-7.45,4.95-10.61,4.04-18.23,1.83
		c-1.17-0.34-2.39-0.69-3.74-1.06l-29.41-7.87c-0.34-0.09-0.62-0.17-0.84-0.23c-0.89-0.3-1.82-0.43-2.76-0.4h-6.01v-23.19h3.07h0.12
		l0.16-0.01c1.99,0.02,3.97-0.4,5.78-1.24c10.55-4.16,18.69-4.66,29.1,5.14l0.14,0.13c1.45,1.68,3.62,2.55,5.82,2.35h15.46
		c1.75,0,3.37,0.96,4.22,2.49c0.01,0.02,0.02,0.03,0.03,0.05c1.26,2.34,0.39,5.26-1.95,6.53c-0.71,0.38-1.49,0.58-2.3,0.58H81.17
		c-1.57-0.03-2.87,1.22-2.89,2.79c-0.03,1.57,1.22,2.87,2.79,2.89c0.04,0,0.07,0,0.11,0h25.05c5.8,0,10.5-4.69,10.51-10.49
		c0-0.77-0.08-1.55-0.25-2.3l22.46-11.53c2.13-1.09,5.03-0.97,6.48,1.37c1.24,2.22,0.52,5.03-1.63,6.38l-9.85,7.02
		c-1.28,0.91-1.58,2.69-0.66,3.96c0.91,1.28,2.69,1.58,3.96,0.66l9.85-7.02c4.62-3.07,6.02-9.23,3.17-13.99
		C147.42,96.45,141.44,94.97,136.33,97.59L136.33,97.59z M40.88,131.78c-0.02,1.02-0.84,1.84-1.86,1.85H27.65
		c-1.02-0.01-1.84-0.84-1.85-1.85v-29.83c0-1.03,0.83-1.86,1.85-1.86h11.36c1.02,0.01,1.85,0.84,1.86,1.86L40.88,131.78z"/>
</g>
</svg>
