<?xml version="1.0" encoding="utf-8"?>
<!-- Generator: Adobe Illustrator 24.1.0, SVG Export Plug-In . SVG Version: 6.00 Build 0)  -->
<svg version="1.1" id="Layer_1" xmlns="http://www.w3.org/2000/svg" xmlns:xlink="http://www.w3.org/1999/xlink" x="0px" y="0px"
	 viewBox="0 0 16.25 20" style="enable-background:new 0 0 16.25 20;" xml:space="preserve">
<style type="text/css">
	.st0{fill:#436AB2;}
	.st1{fill:none;}
	.st2{fill:none;stroke:#7AC25B;}
	.st3{fill:#7AC25B;}
	.st4{fill:#11B37D;}
	.st5{fill:#B1D235;}
	.st6{fill:#139346;}
	.st7{fill:#F6F6F6;}
	.st8{fill:#8F54A1;}
	.st9{enable-background:new    ;}
	.st10{fill:#CBCBCA;}
	.st11{fill:#FFFFFF;}
	.st12{fill:#CC5641;}
	.st13{fill:#4D4D4E;}
	.st14{fill:#F59595;}
	.st15{fill:#EE6161;}
	.st16{fill:#F8B1B1;}
	.st17{fill:#F37C7C;}
	.st18{fill:none;stroke:#FFFFFF;stroke-width:4;}
	.st19{fill:none;stroke:#FFFFFF;stroke-width:3;}
</style>
<g id="Group_1405" transform="translate(-1606 -691)">
	<path id="Path_7516" class="st0" d="M1620.69,693.5h-3.44v-0.62c0-1.04-0.84-1.87-1.88-1.88h-2.5c-1.04,0-1.87,0.84-1.88,1.88v0.62
		h-3.44c-0.86,0-1.56,0.7-1.56,1.56v2.19c0,0.35,0.28,0.62,0.62,0.62h0.34l0.54,11.34c0.05,1,0.87,1.79,1.87,1.79h9.49
		c1,0,1.83-0.79,1.87-1.79l0.54-11.34h0.34c0.35,0,0.62-0.28,0.62-0.62v-2.19C1622.25,694.2,1621.55,693.5,1620.69,693.5z
		 M1612.25,692.88c0-0.34,0.28-0.62,0.62-0.62h2.5c0.34,0,0.62,0.28,0.62,0.62v0.62h-3.75V692.88z M1607.25,695.06
		c0-0.17,0.14-0.31,0.31-0.31h13.12c0.17,0,0.31,0.14,0.31,0.31v1.56h-13.75V695.06z M1619.49,709.16c-0.01,0.34-0.29,0.6-0.62,0.6
		h-9.49c-0.34,0-0.61-0.26-0.62-0.6l-0.54-11.28h11.81L1619.49,709.16z"/>
	<path id="Path_7517" class="st0" d="M1614.12,708.5c0.35,0,0.62-0.28,0.62-0.62v-8.12c0-0.35-0.28-0.62-0.62-0.62
		s-0.62,0.28-0.62,0.62v8.12C1613.5,708.22,1613.78,708.5,1614.12,708.5z"/>
	<path id="Path_7518" class="st0" d="M1617.25,708.5c0.35,0,0.62-0.28,0.62-0.62v-8.12c0-0.35-0.28-0.62-0.62-0.62
		s-0.62,0.28-0.62,0.62v8.12C1616.62,708.22,1616.9,708.5,1617.25,708.5z"/>
	<path id="Path_7519" class="st0" d="M1611,708.5c0.35,0,0.62-0.28,0.62-0.62v-8.12c0-0.35-0.28-0.62-0.62-0.62
		s-0.62,0.28-0.62,0.62v8.12C1610.38,708.22,1610.65,708.5,1611,708.5z"/>
</g>
</svg>
