<?xml version="1.0" encoding="utf-8"?>
<!-- Generator: Adobe Illustrator 24.1.0, SVG Export Plug-In . SVG Version: 6.00 Build 0)  -->
<svg version="1.1" id="Layer_1" xmlns="http://www.w3.org/2000/svg" xmlns:xlink="http://www.w3.org/1999/xlink" x="0px" y="0px"
	 viewBox="0 0 253 47.81" style="enable-background:new 0 0 253 47.81;" xml:space="preserve">
<style type="text/css">
	.st0{fill:#436AB2;}
	.st1{fill:none;}
	.st2{fill:none;stroke:#7AC25B;}
	.st3{fill:#7AC25B;}
	.st4{fill:#11B37D;}
	.st5{fill:#B1D235;}
	.st6{fill:#139346;}
	.st7{fill:#F6F6F6;}
	.st8{fill:#8F54A1;}
	.st9{enable-background:new    ;}
	.st10{fill:#CBCBCA;}
	.st11{fill:#FFFFFF;}
	.st12{fill:#CC5641;}
	.st13{fill:#4D4D4E;}
	.st14{fill:#F59595;}
	.st15{fill:#EE6161;}
	.st16{fill:#F8B1B1;}
	.st17{fill:#F37C7C;}
	.st18{fill:none;stroke:#FFFFFF;stroke-width:4;}
	.st19{fill:none;stroke:#FFFFFF;stroke-width:3;}
</style>
<g id="Group_1065" transform="translate(-274.999 -1460.537)">
	<g id="Group_1064" transform="translate(275.067 1460.537)">
		<g id="Group_779" transform="translate(109.326 10.449)">
			<g id="Group_778" transform="translate(0 0)">
				<path id="Path_7430" d="M12.49,0.67l-1.72,8.08c-0.52,2.51-2.8,4.27-5.36,4.12c-2.56,0-4.11-1.41-3.54-4.12l1.72-8.07h2.09
					L3.96,8.74c-0.33,1.54,0.26,2.45,1.88,2.45c1.48,0.07,2.74-1.05,2.86-2.52l1.7-8.01L12.49,0.67z"/>
				<path id="Path_7431" d="M15.79,3.76l-0.16,1.03c0.76-0.77,1.81-1.2,2.89-1.19c1.82,0,2.57,1.06,2.11,3.19l-1.26,5.92h-2.01
					l1.23-5.8c0.24-1.1-0.07-1.67-1.15-1.67c-0.84-0.01-1.63,0.41-2.1,1.1L14,12.7h-2.01l1.9-8.94L15.79,3.76z"/>
				<path id="Path_7432" d="M29.18,3.76h1.83l-1.93,9.07c-0.53,2.25-2.61,3.79-4.93,3.64c-1.23,0.07-2.41-0.51-3.11-1.52l1.24-1.24
					c0.45,0.74,1.26,1.17,2.12,1.13c1.25,0.08,2.37-0.78,2.62-2.01l0.2-0.92c-0.7,0.62-1.61,0.96-2.55,0.95
					c-2.69,0-3.09-2.53-2.6-4.83c0.48-2.24,2.08-4.44,4.6-4.44c0.87-0.07,1.71,0.34,2.19,1.08L29.18,3.76z M27.58,10.18l0.84-3.94
					c-0.23-0.64-0.87-1.05-1.55-0.99c-1.69,0-2.5,1.61-2.79,2.97s-0.19,3.01,1.5,3.01C26.39,11.21,27.13,10.82,27.58,10.18
					L27.58,10.18z"/>
				<path id="Path_7433" d="M39.88,6.78l-1.26,5.92h-2.01l1.23-5.8c0.23-1.1-0.07-1.67-1.16-1.67c-0.86-0.01-1.66,0.4-2.16,1.1
					l-2.11,9.98H30.4l3.47-16.3h2.01l-1.02,4.78c0.76-0.77,1.81-1.2,2.89-1.19C39.58,3.59,40.33,4.65,39.88,6.78z"/>
				<path id="Path_7434" d="M50.84,12.7l0.14-0.93c-0.75,0.72-1.76,1.12-2.81,1.1c-1.19,0-1.91-0.46-2.16-1.37
					c-0.76,0.88-1.87,1.38-3.03,1.37c-2.09,0-2.68-1.25-2.26-3.22l1.25-5.88h2.02l-1.24,5.83c-0.24,1.12,0.11,1.64,1.25,1.64
					c0.87-0.01,1.66-0.52,2.01-1.32l1.3-6.14h2l-1.26,5.89c-0.22,1.05,0.23,1.57,1.27,1.57c0.77,0.02,1.49-0.35,1.92-0.98l1.38-6.48
					h2.01l-1.9,8.94L50.84,12.7z"/>
				<path id="Path_7435" d="M58.45,14.7l-0.34,1.6h-4.08l2.7-12.71h2.01L56.38,14.7L58.45,14.7z"/>
				<path id="Path_7436" d="M71.04,12.7l0.14-0.93c-0.75,0.72-1.76,1.12-2.81,1.1c-1.19,0-1.91-0.46-2.16-1.37
					c-0.76,0.88-1.87,1.38-3.03,1.37c-2.09,0-2.68-1.25-2.26-3.22l1.25-5.88h2.02l-1.24,5.83c-0.24,1.12,0.11,1.64,1.25,1.64
					c0.87-0.01,1.66-0.52,2.01-1.32l1.31-6.14h2l-1.26,5.89c-0.22,1.05,0.23,1.57,1.27,1.57c0.77,0.02,1.49-0.35,1.92-0.98
					l1.38-6.48h2.01l-1.9,8.94L71.04,12.7z"/>
				<path id="Path_7437" d="M75.6,9.67l2.06-9.66h2.01l-2.03,9.54c-0.23,1.1,0.07,1.67,1.16,1.67c0.86,0.01,1.66-0.4,2.16-1.1
					l1.35-6.36h2.01L81.64,16.3h-2.01l0.98-4.64c-0.76,0.77-1.81,1.21-2.89,1.2C75.9,12.87,75.14,11.8,75.6,9.67z"/>
				<path id="Path_7438" d="M95.29,12.7l0.14-0.93c-0.75,0.72-1.76,1.12-2.81,1.1c-1.19,0-1.91-0.46-2.16-1.37
					c-0.76,0.88-1.87,1.38-3.03,1.37c-2.09,0-2.68-1.25-2.26-3.22l1.25-5.88h2.02L87.2,9.59c-0.24,1.12,0.11,1.64,1.25,1.64
					c0.87-0.01,1.66-0.52,2.01-1.32l1.3-6.14h2L92.5,9.65c-0.22,1.05,0.23,1.57,1.27,1.57c0.77,0.02,1.49-0.35,1.92-0.98l1.38-6.48
					h2.01l-1.9,8.94L95.29,12.7z"/>
				<path id="Path_7439" d="M109.96,3.76l-1.9,8.94h-1.89l0.16-1.03c-0.76,0.78-1.8,1.21-2.89,1.2c-1.82,0-2.57-1.07-2.11-3.19
					l1.71-8.07h-2.04l0.34-1.6h4.05l-2.03,9.55c-0.24,1.09,0.07,1.66,1.15,1.66c0.84,0.01,1.63-0.4,2.1-1.1l1.35-6.36L109.96,3.76z"
					/>
				<path id="Path_7440" d="M7.41,35.01l-0.35,1.6h-5.5c-1.68,0-1.65-1.28-1.5-1.92s0.59-1.6,3.53-3.66c1.11-0.72,2.1-1.6,2.94-2.61
					c0.46-0.6,0.93-2.09-0.22-2.56c-0.16-0.07-0.34-0.11-0.51-0.11c-1.03,0-1.79,1.3-1.9,1.59l-1.53-0.86
					c0.65-1.56,2.18-2.58,3.88-2.58c1-0.05,1.95,0.42,2.51,1.24c1.24,2.07-0.64,4.64-2.84,6.21c-2.32,1.65-3.23,2.4-3.49,2.95
					c-0.16,0.34-0.12,0.7,0.35,0.7L7.41,35.01z"/>
				<path id="Path_7441" d="M23.44,27.1l-1.26,5.92h-2.01l1.23-5.8c0.24-1.1-0.07-1.67-1.15-1.67c-0.84-0.01-1.63,0.41-2.1,1.1
					l-1.35,6.37h-1.88l0.16-1.01l-0.01-0.02c-0.76,0.77-1.8,1.2-2.88,1.19c-1.82,0-2.58-1.07-2.12-3.2l1.26-5.91h2.01l-1.23,5.79
					c-0.23,1.1,0.07,1.67,1.16,1.67c0.84,0.01,1.63-0.4,2.1-1.1l1.35-6.36h1.89l-0.16,1.03c0.76-0.78,1.81-1.21,2.89-1.2
					C23.14,23.91,23.9,24.97,23.44,27.1z"/>
				<path id="Path_7442" d="M34.94,33.01l0.14-0.93c-0.75,0.72-1.76,1.12-2.81,1.1c-1.19,0-1.91-0.46-2.16-1.37
					c-0.76,0.88-1.87,1.38-3.03,1.37c-2.09,0-2.68-1.25-2.26-3.22l1.25-5.88h2.02l-1.24,5.83c-0.24,1.12,0.11,1.64,1.25,1.64
					c0.87-0.01,1.66-0.52,2.01-1.32l1.3-6.14h2l-1.26,5.89c-0.22,1.05,0.23,1.57,1.27,1.57c0.77,0.02,1.49-0.35,1.92-0.98l1.38-6.48
					h2.01l-1.9,8.94L34.94,33.01z"/>
				<path id="Path_7443" d="M48.72,36.62l0.97-4.54c-0.73,0.72-1.71,1.11-2.74,1.1c-1.21,0-1.93-0.46-2.17-1.37
					c-0.78,0.89-1.9,1.39-3.08,1.37c-2.04,0-2.62-1.25-2.2-3.23l1.25-5.88h2.01l-1.24,5.82c-0.24,1.13,0.11,1.64,1.26,1.64
					c0.87-0.01,1.66-0.53,2-1.33l1.31-6.13h2l-1.26,5.88c-0.22,1.05,0.23,1.58,1.27,1.58c0.77,0.02,1.49-0.35,1.93-0.98l1.38-6.48
					h2.01l-2.67,12.54L48.72,36.62z"/>
				<path id="Path_7444" d="M62.67,28.42c-0.57,2.66-2.4,4.76-5.17,4.76c-2.75,0-3.77-2.07-3.22-4.62c0.38-2.59,2.55-4.55,5.17-4.65
					C62.06,23.91,63.2,25.89,62.67,28.42z M57.83,31.54c1.71,0,2.52-1.67,2.82-3.07c0.29-1.37,0.05-2.93-1.57-2.93
					c-1.69,0-2.5,1.7-2.79,3.02C55.99,30.02,56.2,31.54,57.83,31.54L57.83,31.54z"/>
				<path id="Path_7445" d="M73.45,31.41l-0.34,1.6h-2.05l-0.76,3.61H68.3l0.92-4.39c-0.69,0.62-1.59,0.96-2.52,0.95
					c-2.63,0-3.12-2.45-2.65-4.71c0.5-2.35,2.05-4.56,4.6-4.56c0.88-0.08,1.73,0.34,2.21,1.08l0.31-0.91h1.78l-1.55,7.33
					L73.45,31.41z M70.43,26.56c-0.22-0.64-0.85-1.06-1.53-1c-1.65,0-2.51,1.64-2.81,3.05c-0.29,1.35-0.01,2.92,1.56,2.92
					c0.78-0.02,1.5-0.41,1.94-1.04L70.43,26.56z"/>
				<path id="Path_7446" d="M85.27,24.07l-1.9,8.94h-1.89l0.16-1.03c-0.76,0.78-1.8,1.21-2.89,1.2c-1.82,0-2.57-1.07-2.11-3.19
					l1.71-8.07H76.3l0.34-1.6h4.05l-2.03,9.55c-0.24,1.09,0.07,1.66,1.15,1.66c0.84,0.01,1.63-0.4,2.1-1.1l1.35-6.36L85.27,24.07z"
					/>
				<path id="Path_7447" d="M89.22,24.07l-0.16,1.03c0.76-0.77,1.81-1.2,2.89-1.19c1.82,0,2.57,1.06,2.12,3.19l-1.26,5.92h-2.01
					l1.23-5.8c0.24-1.1-0.07-1.67-1.15-1.67c-0.84-0.01-1.63,0.41-2.1,1.1l-1.35,6.37h-2.01l1.9-8.94L89.22,24.07z"/>
				<path id="Path_7448" d="M99.25,31.41l-0.34,1.6h-4.07l1.9-8.94h2.01l-1.56,7.34L99.25,31.41z"/>
				<path id="Path_7449" d="M112.39,27.34l-0.34,1.6h-1.21l-0.21,0.96c-0.29,1.89-1.92,3.29-3.83,3.28c-2.2,0-2.59-1.33-2.21-3.07
					c0.41-1.61,1.85-2.75,3.51-2.78h0.96c0.08-0.61-0.07-1.74-2-1.74c-1.35,0.02-2.62,0.64-3.46,1.7l-1.97,9.32H99.6l2.69-12.54
					h1.88l-0.23,1.35c0.98-1,2.33-1.54,3.73-1.51c1.7-0.19,3.23,1.04,3.41,2.74c0.03,0.23,0.02,0.46,0,0.69L112.39,27.34z
					 M108.67,29.82l0.19-0.88h-1.26c-1.81,0-2.32,2.64-0.71,2.64C108,31.57,108.45,30.86,108.67,29.82z"/>
				<path id="Path_7450" d="M111.33,36.64l0.34-1.58c0.2,0.05,0.41,0.07,0.62,0.08c0.68,0.05,1.27-0.44,1.35-1.12l2.12-9.96h2.01
					l-2.1,9.88c-0.18,1.66-1.61,2.9-3.28,2.84C112.02,36.79,111.67,36.74,111.33,36.64z"/>
				<path id="Path_7451" d="M121.75,24.07l-0.16,1.03c0.76-0.77,1.81-1.2,2.89-1.19c1.82,0,2.57,1.06,2.11,3.19l-1.26,5.92h-2.01
					l1.23-5.8c0.24-1.1-0.07-1.67-1.15-1.67c-0.84-0.01-1.63,0.41-2.1,1.1l-1.35,6.37h-2.01l1.9-8.94L121.75,24.07z"/>
				<path id="Path_7452" d="M131.78,31.41l-0.34,1.6h-4.06l1.9-8.94h2.01l-1.56,7.34L131.78,31.41z"/>
				<path id="Path_7453" d="M143.61,24.07l-1.9,8.94h-1.89l0.16-1.03c-0.76,0.78-1.8,1.21-2.89,1.2c-1.82,0-2.57-1.07-2.11-3.19
					l1.71-8.07h-2.04l0.34-1.6h4.05L137,29.88c-0.24,1.09,0.07,1.66,1.15,1.66c0.84,0.01,1.63-0.4,2.1-1.1l1.36-6.36L143.61,24.07z"
					/>
			</g>
		</g>
		<path id="Path_7454" class="st4" d="M95.6,47.81H0c-0.01-8.22,2.1-16.3,6.14-23.45l5.77,3.33l11.97-6.91V6.94l-0.45-0.26
			c22.72-13.46,52.05-5.95,65.5,16.77C93.3,30.83,95.61,39.24,95.6,47.81L95.6,47.81z"/>
	</g>
	<path id="Path_7455" class="st5" d="M298.49,1467.22c-7.21,4.28-13.17,10.38-17.29,17.68l-6.21-3.58v-13.83l11.98-6.91
		L298.49,1467.22z"/>
	<path id="Path_7456" class="st6" d="M298.95,1467.48v13.83l-11.97,6.91l-5.77-3.33c4.12-7.3,10.08-13.4,17.29-17.68L298.95,1467.48
		z"/>
</g>
</svg>
