<?xml version="1.0" encoding="utf-8"?>
<!-- Generator: Adobe Illustrator 24.1.0, SVG Export Plug-In . SVG Version: 6.00 Build 0)  -->
<svg version="1.1" id="Layer_1" xmlns="http://www.w3.org/2000/svg" xmlns:xlink="http://www.w3.org/1999/xlink" x="0px" y="0px"
	 viewBox="0 0 341 113" style="enable-background:new 0 0 341 113;" xml:space="preserve">
<style type="text/css">
	.st0{fill:#436AB2;}
	.st1{fill:none;}
	.st2{fill:none;stroke:#7AC25B;}
	.st3{fill:#7AC25B;}
	.st4{fill:#11B37D;}
	.st5{fill:#B1D235;}
	.st6{fill:#139346;}
	.st7{fill:#F6F6F6;}
	.st8{fill:#8F54A1;}
	.st9{enable-background:new    ;}
	.st10{fill:#CBCBCA;}
	.st11{fill:#FFFFFF;}
	.st12{font-family:'Montserratarm2-Bold';}
	.st13{font-size:30px;}
	.st14{font-family:'Roboto-Bold';}
	.st15{font-size:19px;}
	.st16{fill:#CC5641;}
	.st17{fill:#4D4D4E;}
	.st18{fill:#F59595;}
	.st19{fill:#EE6161;}
	.st20{fill:#F8B1B1;}
	.st21{fill:#F37C7C;}
	.st22{fill:none;stroke:#FFFFFF;stroke-width:4;}
	.st23{fill:none;stroke:#FFFFFF;stroke-width:3;}
</style>
<g id="Group_946" transform="translate(-1551.5 -177.5)">
	<g transform="matrix(1, 0, 0, 1, 1551.5, 177.5)">
		<path id="Rectangle_262-2" class="st3" d="M56.5,0H341l0,0v113l0,0H56.5C25.3,113,0,87.7,0,56.5l0,0C0,25.3,25.3,0,56.5,0z"/>
	</g>
	<text transform="matrix(1 0 0 1 1671.885 232.5)" class="st11 st12 st13">Թեժ գիծ</text>
	<text transform="matrix(1 0 0 1 1694.5 261.5)" class="st11 st14 st15">+374 11 22 33</text>
	<path id="Path_7522" class="st11" d="M1685.1,257.92c-0.77,0-1.54-0.16-2.25-0.47c-0.36-0.14-0.77-0.03-1,0.28l-1.41,1.41
		c-1.63-1.14-2.87-2.77-3.53-4.64l1.04-1.83c0.28-0.4,0.37-0.89,0.25-1.36c-0.24-0.97-0.36-1.97-0.36-2.97
		c0.08-0.64-0.37-1.23-1.01-1.34h-2.32c-0.64,0.1-1.09,0.69-1.01,1.34c0,8.44,5.2,15.31,11.6,15.31c0.64-0.1,1.09-0.69,1.01-1.34
		v-3.05C1686.19,258.61,1685.74,258.02,1685.1,257.92z"/>
	<g id="zbc57b_2_" transform="translate(953.566 226.335)">
		<g id="Group_937_2_" transform="translate(663.435 0.665)">
			<path id="Path_7521_2_" class="st0" d="M25.79,40.54h-48.1c-0.12-0.05-0.24-0.09-0.37-0.13c-3.18-0.58-5.29-3.64-4.71-6.82
				c0.04-0.24,0.11-0.49,0.18-0.72c0.61-1.89,1.34-3.75,2.18-5.55c1.69-3.59,4.36-6.1,8.43-6.62c2.03-0.26,4.11-0.16,6.16-0.22
				c0.25-0.01,0.49,0,0.68,0c-1.03-1.16-2.05-2.27-2.99-3.43c-0.26-0.38-0.69-0.59-1.15-0.57c-5.49,0.19-10.1-4.11-10.29-9.6
				c-0.01-0.24-0.01-0.47,0-0.71c0-2.7-0.03-5.4,0.01-8.1c0.05-4.13,1.11-8.19,3.1-11.82c2.63-4.97,6.83-8.95,11.94-11.3
				C-4.5-27.27,0.7-28,5.76-27.16c5.94,0.92,11.37,3.92,15.31,8.46c4.09,4.56,6.42,10.43,6.55,16.56c0.09,2.85,0.04,5.71,0.02,8.57
				c0.11,5.19-3.85,9.56-9.02,9.96c-1.36,0.02-2.62,0.71-3.36,1.85c-0.67,0.8-1.4,1.55-2.19,2.24h0.77c1.55,0.01,3.1-0.03,4.65,0.03
				c3.76,0.02,7.23,2.01,9.15,5.24c1.42,2.35,2.49,4.9,3.16,7.56c0.65,2.21-0.2,4.58-2.11,5.88C27.77,39.75,26.8,40.2,25.79,40.54z
				 M15.61,4.54H9.87C7.89,4.58,5.94,4.01,4.29,2.9C3.36,2.19,2.46,1.42,1.6,0.62C1.57,0.7,1.52,0.78,1.47,0.85
				C-0.52,3.3-3.55,4.67-6.7,4.54c-1.62-0.02-3.23,0-4.85,0c-0.21,0-0.42,0.02-0.63,0.03c-0.62,7.12,3.29,13.22,9.74,15.27
				c5.78,1.84,11.45-0.62,13.74-3.35h-0.42c-1.7,0-3.41,0.03-5.11-0.01c-1.08,0.04-1.99-0.8-2.03-1.88
				c-0.01-0.33,0.06-0.65,0.2-0.95c0.37-0.76,1.17-1.22,2.01-1.14c2.79,0.01,5.58,0,8.34,0C15.46,10.02,15.92,7.26,15.61,4.54z
				 M-12.19,0.53c2.14,0,4.22,0.06,6.29-0.02c1.78-0.06,3.43-0.95,4.46-2.41c0.75-1.05,1.16-2.3,1.19-3.59
				c0.03-0.92,0.69-1.7,1.59-1.88c0.83-0.18,1.68,0.2,2.09,0.95c0.17,0.38,0.28,0.78,0.3,1.2c0.13,3.31,2.91,5.9,6.23,5.78
				c1.73,0.01,3.45,0,5.18,0c0.17,0,0.34-0.03,0.52-0.04C16-5.29,14.18-10.1,9.21-13.27c-4.47-3.12-10.41-3.14-14.9-0.04
				C-10.69-10.14-12.53-5.32-12.19,0.53L-12.19,0.53z M23.5-3.28c-0.51-7.52-4.93-14.23-11.64-17.67
				c-7.53-3.84-15.04-3.48-22.13,1.13c-5.95,3.87-9.11,9.55-9.86,16.55l3.99-0.23C-15.1-12.3-7.85-19.06,1-19.49
				c3.93-0.19,7.8,0.96,10.99,3.25c4.24,2.96,7,7.6,7.58,12.73L23.5-3.28z M5.74,36.56h12.68c2.15,0,4.29,0.02,6.44,0
				c1.07,0.1,2.02-0.69,2.12-1.76c0.03-0.34-0.03-0.68-0.17-0.99c-0.7-1.81-1.39-3.63-2.25-5.37c-0.96-2.21-3.08-3.7-5.49-3.85
				c-1.28-0.1-2.56-0.06-3.84-0.12c-0.35-0.03-0.69,0.14-0.87,0.45c-2.75,3.72-5.5,7.43-8.27,11.13C5.99,36.17,5.9,36.32,5.74,36.56
				z M-2.35,36.56c-0.01-0.07-0.02-0.14-0.05-0.21c-2.87-3.87-5.75-7.74-8.64-11.6c-0.14-0.16-0.33-0.25-0.54-0.27
				c-1.13-0.02-2.26-0.03-3.39,0.02c-2.67,0-5.08,1.57-6.16,4.01c-0.79,1.65-1.39,3.39-2.15,5.05c-0.53,1.03-0.12,2.29,0.91,2.81
				c0.39,0.2,0.82,0.27,1.25,0.21c2.12-0.09,4.25-0.02,6.37-0.02L-2.35,36.56z M-6.23,24.5l7.97,10.71L9.7,24.5H-6.23z M18.65,12.42
				c2.21-0.34,4.02-1.92,4.68-4.05c0.64-2.02,0.33-4.13,0.27-6.2c-0.08-0.83-0.75-1.49-1.58-1.57c-0.77-0.04-1.54-0.05-2.31-0.02
				C19.54,4.54,20.11,8.49,18.65,12.42L18.65,12.42z M-16.23,0.56c-0.74,0-1.4-0.03-2.06,0.01c-0.98,0.01-1.79,0.77-1.86,1.75
				c-0.08,1.77-0.04,3.54,0.11,5.3c0.38,2.47,2.34,4.39,4.81,4.71C-16.64,8.5-16.07,4.54-16.23,0.56z"/>
		</g>
	</g>
</g>
</svg>
