<?xml version="1.0" encoding="utf-8"?>
<!-- Generator: Adobe Illustrator 24.1.0, SVG Export Plug-In . SVG Version: 6.00 Build 0)  -->
<svg version="1.1" id="Layer_1" xmlns="http://www.w3.org/2000/svg" xmlns:xlink="http://www.w3.org/1999/xlink" x="0px" y="0px"
	 viewBox="0 0 124.01 100.27" style="enable-background:new 0 0 124.01 100.27;" xml:space="preserve">
<style type="text/css">
	.st0{fill:#436AB2;}
	.st1{fill:none;}
	.st2{fill:none;stroke:#7AC25B;}
	.st3{fill:#7AC25B;}
	.st4{fill:#11B37D;}
	.st5{fill:#B1D235;}
	.st6{fill:#139346;}
	.st7{fill:#F6F6F6;}
	.st8{fill:#8F54A1;}
	.st9{enable-background:new    ;}
	.st10{fill:#CBCBCA;}
	.st11{fill:#FFFFFF;}
	.st12{fill:#CC5641;}
	.st13{fill:#4D4D4E;}
	.st14{fill:#F59595;}
	.st15{fill:#EE6161;}
	.st16{fill:#F8B1B1;}
	.st17{fill:#F37C7C;}
	.st18{fill:none;stroke:#FFFFFF;stroke-width:4;}
	.st19{fill:none;stroke:#FFFFFF;stroke-width:3;}
</style>
<g id="help" transform="translate(0 -49.045)">
	<path id="Path_7352" class="st11" d="M51.03,101.29c1.51-0.03,2.71-1.28,2.68-2.78c-0.03-1.47-1.21-2.65-2.68-2.68
		c-2.69,0.01-5.36-0.43-7.9-1.32c-2.46-0.84-4.74-2.14-6.73-3.82c-1.79-1.51-3.25-3.36-4.3-5.45c-1-2.01-1.53-4.23-1.54-6.48
		c0-0.62-0.21-1.22-0.59-1.7c-0.22-0.28-0.49-0.51-0.8-0.69c-3.26,1.68-7.14,1.67-10.39-0.04c-0.59,0.27-1.1,0.69-1.47,1.21
		c-0.47,0.67-0.75,1.45-0.79,2.27l-0.37,6.1c-0.04,1-0.88,1.78-1.88,1.74c-1-0.04-1.78-0.88-1.74-1.88c0-0.02,0-0.05,0-0.07
		l0.37-6.1c0.09-1.5,0.6-2.94,1.47-4.17c0.39-0.54,0.85-1.03,1.36-1.45c-1.93-2.08-3-4.82-3-7.65V56.17
		c0.01-3.93,3.19-7.11,7.12-7.13h8.35c3.93,0.02,7.11,3.2,7.12,7.13v10.15c0,2.9-1.12,5.69-3.13,7.78c0.23,0.21,0.44,0.44,0.63,0.68
		c0.9,1.13,1.39,2.53,1.38,3.97c0,1.69,0.4,3.36,1.15,4.88c0.83,1.65,1.99,3.11,3.4,4.3c1.61,1.36,3.45,2.41,5.44,3.11V78.81
		c0-1,0.81-1.82,1.82-1.82c0,0,0,0,0,0h31.97c1,0,1.82,0.81,1.82,1.81c0,0,0,0.01,0,0.01v12.23c1.99-0.7,3.83-1.75,5.44-3.11
		c1.41-1.19,2.57-2.65,3.4-4.3c0.75-1.51,1.15-3.18,1.15-4.87c0-1.32,0.41-2.61,1.18-3.69c0.25-0.35,0.53-0.67,0.84-0.96
		c-2.01-2.09-3.13-4.88-3.13-7.79V56.17c0.01-3.93,3.2-7.11,7.13-7.13h8.34c3.93,0.01,7.11,3.2,7.12,7.13v10.15
		c0,2.84-1.07,5.57-3,7.65c0.52,0.42,0.97,0.91,1.36,1.45c0.88,1.22,1.39,2.67,1.47,4.17l1.57,25.94c0.1,1.74,0.12,3.27,0.12,5.02
		l-0.03,15.74l9.34,10.44c2.72,3.12,2.49,7.84-0.52,10.68c-3.09,2.74-7.82,2.46-10.56-0.62L99.9,134.35
		c-1.36-1.4-2.12-3.28-2.11-5.23l0.01-4.04c0,0-2.26,2.26-2.68,2.69l-0.1,13.85c0.12,4.13-3.12,7.58-7.26,7.7
		c-4.13,0.12-7.58-3.12-7.7-7.26c0-0.11,0-0.22,0-0.32l0.11-14.37c0-1,0.82-1.81,1.82-1.81c1,0,1.81,0.82,1.81,1.82l-0.11,14.38
		c-0.01,1.02,0.38,2.01,1.1,2.74c0.76,0.77,1.8,1.19,2.88,1.16c2.12-0.06,3.8-1.83,3.74-3.96c0,0,0,0,0,0l0.11-14.69
		c0-0.45,0.17-0.88,0.47-1.21c0.27-0.3,12.29-12.82,17.2-18.12l-0.12-1.99l-13.95,0.84l0.21,3.36c0.03,0.49-0.14,0.96-0.47,1.32
		l-8.99,9.85c-0.68,0.74-1.83,0.8-2.57,0.12c-0.74-0.68-0.8-1.83-0.12-2.57l0,0l8.47-9.28c-0.2-3.29-0.4-6.58-0.6-9.87
		c-3.4,2.31-7.22,3.92-11.24,4.75v6.56c0,1-0.81,1.82-1.82,1.82c0,0,0,0,0,0H66.12c-1,0-1.82-0.81-1.82-1.82
		c0-1,0.81-1.82,1.82-1.82h10.04v-4.18c-1.04,0.1-2.11,0.15-3.19,0.15c-3.52,0-6.37-2.85-6.37-6.37c0-3.52,2.85-6.37,6.37-6.37l0,0
		c1.07,0,2.13-0.07,3.19-0.23V80.63h-7.75v8.64c0,1-0.81,1.82-1.82,1.82h-9.18c-1,0-1.82-0.81-1.82-1.81c0,0,0-0.01,0-0.01v-8.64
		h-7.76v11.32c1.06,0.16,2.12,0.24,3.19,0.23c3.52,0,6.37,2.85,6.37,6.37c0,3.52-2.85,6.37-6.37,6.37c-1.08,0-2.14-0.05-3.19-0.15
		v4.18h10.04c1,0,1.82,0.81,1.82,1.82c0,1-0.81,1.82-1.82,1.82H46.02c-1,0-1.82-0.82-1.82-1.82v-6.56
		c-4.02-0.83-7.84-2.44-11.23-4.74c-0.2,3.29-0.4,6.58-0.6,9.87l9.5,10.42c0.65,0.71,1.15,1.54,1.49,2.44
		c0.33,0.9,0.49,1.86,0.47,2.82l0.12,16.73c0.04,4.13-3.28,7.51-7.41,7.55c-1.98,0.02-3.89-0.75-5.31-2.14
		c-1.39-1.47-2.18-3.4-2.24-5.42l-0.1-13.97c-0.89-0.91-1.78-1.8-2.68-2.69l0.01,4.04c0.01,1.94-0.75,3.81-2.09,5.21l-11.14,12.45
		c-2.75,3.09-7.48,3.37-10.57,0.62c-3.01-2.84-3.24-7.56-0.52-10.68l9.34-10.44l-0.03-16.02c-0.01-1.32-0.01-2.63,0.07-3.95
		l0.76-12.41c0.08-1,0.95-1.75,1.95-1.67c0.97,0.08,1.71,0.91,1.67,1.88l-0.48,7.94l13.94,0.84l0.38-6.22
		c-1.32-1.22-2.51-2.58-3.56-4.04c-1.26-1.76-2.27-3.69-3.01-5.73c-0.34-0.94,0.14-1.98,1.08-2.32c0.94-0.34,1.98,0.14,2.32,1.08
		l0,0c0.63,1.73,1.49,3.36,2.56,4.85c2.08,2.87,4.75,5.26,7.84,7.01C41.1,100.02,46.03,101.31,51.03,101.29L51.03,101.29z
		 M107.14,69.05c-0.47,0.07-0.93,0.12-1.37,0.14c-2.18,0.2-4.35-0.43-6.08-1.76c-1.43-1.21-2.46-2.83-2.96-4.63
		c-0.13-0.45-0.25-0.89-0.34-1.35c-1.28,0.53-2.68,0.76-4.06,0.66v4.22c0,4.23,3.42,7.65,7.65,7.65c2.03,0,3.98-0.81,5.42-2.24
		C106.16,70.97,106.75,70.06,107.14,69.05z M92.33,58.46c1.5,0.17,3.01-0.28,4.19-1.23c0.33-0.34,0.78-0.54,1.25-0.57
		c1-0.05,1.85,0.73,1.9,1.73c0.05,1.13,0.23,2.25,0.54,3.34c0.29,1.11,0.91,2.11,1.76,2.87c1.05,0.77,2.35,1.11,3.65,0.97
		c0.68-0.05,1.36-0.15,2.03-0.3v-9.1c0-1.92-1.56-3.48-3.48-3.49h-8.35c-1.92,0.01-3.48,1.56-3.49,3.49V58.46z M16.37,65.27
		c0.67,0.16,1.35,0.26,2.04,0.3c1.29,0.14,2.59-0.2,3.64-0.97c0.86-0.76,1.48-1.76,1.76-2.87c0.31-1.09,0.49-2.21,0.54-3.34
		c0.05-1,0.9-1.77,1.9-1.73c0.45,0.02,0.88,0.21,1.2,0.53c1.18,0.98,2.71,1.44,4.24,1.27v-2.29c0-1.92-1.56-3.48-3.48-3.49h-8.35
		c-1.92,0.01-3.48,1.57-3.48,3.49V65.27z M31.68,62.1c-1.39,0.1-2.77-0.13-4.06-0.66c-0.1,0.46-0.21,0.91-0.34,1.35
		c-0.5,1.81-1.53,3.42-2.96,4.63c-1.73,1.34-3.9,1.97-6.08,1.76c-0.43-0.02-0.89-0.07-1.36-0.14c0.39,1,0.98,1.92,1.74,2.68
		c1.43,1.44,3.37,2.24,5.4,2.25c2.01-0.08,3.92-0.88,5.4-2.25c1.44-1.43,2.25-3.38,2.25-5.41L31.68,62.1L31.68,62.1z M94.84,76.36
		c-0.35,0.2-0.66,0.48-0.89,0.81c-0.33,0.46-0.5,1.01-0.5,1.58c-0.01,2.25-0.54,4.47-1.54,6.48c-1.04,2.09-2.51,3.95-4.3,5.45
		c-1.98,1.68-4.26,2.97-6.72,3.82c-2.54,0.88-5.21,1.33-7.9,1.32c-1.51-0.03-2.76,1.17-2.78,2.68s1.17,2.76,2.68,2.78
		c0.03,0,0.07,0,0.1,0c2.28,0,4.56-0.26,6.78-0.78c4.92-1.12,9.43-3.61,13-7.18c0.85-0.86,1.63-1.79,2.33-2.77
		c1.07-1.5,1.93-3.13,2.56-4.86c0.36-0.93,1.42-1.4,2.35-1.03c0.9,0.35,1.37,1.35,1.06,2.27c-0.74,2.04-1.76,3.96-3.01,5.73
		c-1.05,1.46-2.23,2.82-3.55,4.04l0.38,6.22l13.94-0.84l-1.34-22.27c-0.05-0.81-0.32-1.6-0.79-2.27c-0.38-0.53-0.89-0.95-1.48-1.21
		C101.98,78.03,98.1,78.04,94.84,76.36L94.84,76.36z M14.96,105.69l-0.12,1.99l17.2,18.12c0.3,0.33,0.47,0.77,0.47,1.21l0.11,14.69
		c-0.08,1.09,0.35,2.15,1.17,2.87c0.75,0.72,1.75,1.12,2.79,1.09c2.11-0.06,3.78-1.79,3.76-3.9l-0.12-16.74
		c0.02-0.53-0.06-1.06-0.24-1.57c-0.17-0.47-0.43-0.9-0.78-1.26l-10.01-10.98c-0.33-0.36-0.5-0.84-0.47-1.32l0.21-3.36L14.96,105.69
		z M64.78,80.63h-5.54v6.82h5.54V80.63z M101.43,121.4l-0.02,7.72c0,0.5,0.1,0.99,0.28,1.46c0.22,0.5,0.52,0.96,0.91,1.36
		l11.14,12.44c1.41,1.59,3.85,1.73,5.44,0.32c1.79-1.59,1.59-3.76,0.23-5.53l-9.8-10.96c-0.3-0.33-0.47-0.76-0.47-1.21l0.03-13.9
		C106.96,115.67,104.07,118.7,101.43,121.4z M22.58,121.4c-2.64-2.7-5.53-5.73-7.74-8.31l0.03,13.9c0,0.45-0.16,0.88-0.46,1.21
		L4.6,139.16c-1.36,1.77-1.55,3.95,0.23,5.53c1.59,1.41,4.03,1.27,5.45-0.32l11.13-12.44c0.38-0.4,0.69-0.86,0.91-1.36
		c0.18-0.46,0.28-0.96,0.27-1.46L22.58,121.4z"/>
</g>
</svg>
