<?xml version="1.0" encoding="utf-8"?>
<!-- Generator: Adobe Illustrator 24.1.0, SVG Export Plug-In . SVG Version: 6.00 Build 0)  -->
<svg version="1.1" id="Layer_1" xmlns="http://www.w3.org/2000/svg" xmlns:xlink="http://www.w3.org/1999/xlink" x="0px" y="0px"
	 viewBox="0 0 109 109" style="enable-background:new 0 0 109 109;" xml:space="preserve">
<style type="text/css">
	.st0{fill:#436AB2;}
	.st1{fill:none;}
	.st2{fill:none;stroke:#7AC25B;}
	.st3{fill:#7AC25B;}
	.st4{fill:#11B37D;}
	.st5{fill:#B1D235;}
	.st6{fill:#139346;}
	.st7{fill:#F6F6F6;}
	.st8{fill:#8F54A1;}
	.st9{enable-background:new    ;}
	.st10{fill:#CBCBCA;}
	.st11{fill:#FFFFFF;}
	.st12{fill:#CC5641;}
	.st13{fill:#4D4D4E;}
	.st14{fill:#F59595;}
	.st15{fill:#EE6161;}
	.st16{fill:#F8B1B1;}
	.st17{fill:#F37C7C;}
	.st18{fill:none;stroke:#FFFFFF;stroke-width:4;}
	.st19{fill:none;stroke:#FFFFFF;stroke-width:3;}
</style>
<g id="Group_1211_1_" transform="translate(-1234 -1047)">
	<path id="Path_7936" class="st3" d="M1288.5,1047c30.1,0,54.5,24.4,54.5,54.5s-24.4,54.5-54.5,54.5s-54.5-24.4-54.5-54.5
		S1258.4,1047,1288.5,1047z"/>
	<g id="Group_1203_1_" transform="translate(1266.484 1069.378)">
		<path id="Path_7928_1_" class="st11" d="M40.36,48.42c-2.13-2.14-5.03-3.34-8.05-3.33c-1.37,0.01-2.64-0.71-3.35-1.88
			c-0.44-0.73-1.4-0.96-2.13-0.52c-0.73,0.44-0.96,1.4-0.52,2.13c1.27,2.1,3.54,3.37,5.99,3.36c4.57,0,8.28,3.7,8.28,8.27
			c0,0,0,0.01,0,0.01v6.23c0,0.86,0.69,1.55,1.55,1.55s1.55-0.69,1.55-1.55v-6.23C43.7,53.45,42.5,50.55,40.36,48.42z"/>
		<path id="Path_7929_1_" class="st11" d="M28.86,48.47c-0.55-0.65-1.53-0.74-2.18-0.19c-3.16,2.67-7.9,2.27-10.57-0.89
			c-0.17-0.2-0.33-0.42-0.48-0.64c1.42-1.08,2.37-2.66,2.66-4.41c4.26,1.09,8.78,0.18,12.28-2.47c3.69-2.71,5.87-7.02,5.87-11.6
			v-8.64c0-4.35-3.53-7.87-7.87-7.87H15.12c-4.35,0-7.87,3.53-7.87,7.87v5.69c-0.13-0.24-0.2-0.51-0.2-0.78V11.7
			c0-1.11,0.9-2.01,2.01-2.01c0.63,0,1.2-0.38,1.44-0.97c1.35-3.4,4.64-5.63,8.3-5.62h9.04c4.93,0.01,8.93,4,8.93,8.93v12.51
			c0,0.86,0.69,1.55,1.55,1.55s1.55-0.69,1.55-1.55V12.03C39.86,5.39,34.48,0.01,27.83,0h-9.04c-4.59-0.03-8.78,2.58-10.79,6.7
			c-2.36,0.51-4.04,2.59-4.05,5v12.84c0,2.08,1.34,3.92,3.32,4.55c0.31,5.18,3.37,9.81,8.01,12.14c-0.02,2.14-1.77,3.87-3.91,3.87
			C5.1,45.1,0.01,50.19,0,56.47v6.23c0,0.86,0.69,1.55,1.55,1.55S3.1,63.56,3.1,62.7v-6.23c0-4.57,3.71-8.27,8.28-8.28
			c0.47,0,0.94-0.05,1.4-0.14c1.64,2.7,4.39,4.53,7.51,4.99v4.39c0,0.86,0.69,1.55,1.55,1.55s1.55-0.69,1.55-1.55v-4.39
			c1.95-0.29,3.78-1.11,5.28-2.38C29.33,50.1,29.41,49.13,28.86,48.47C28.86,48.47,28.86,48.47,28.86,48.47L28.86,48.47z
			 M10.34,28.18v-8.55c0-2.64,2.14-4.77,4.78-4.78h13.44c2.64,0,4.77,2.14,4.78,4.78v8.55c0,6.35-5.15,11.5-11.5,11.5
			S10.34,34.54,10.34,28.18L10.34,28.18z"/>
	</g>
</g>
</svg>
