<?xml version="1.0" encoding="utf-8"?>
<!-- Generator: Adobe Illustrator 24.1.0, SVG Export Plug-In . SVG Version: 6.00 Build 0)  -->
<svg version="1.1" id="Layer_1" xmlns="http://www.w3.org/2000/svg" xmlns:xlink="http://www.w3.org/1999/xlink" x="0px" y="0px"
	 viewBox="0 0 28.56 27.37" style="enable-background:new 0 0 28.56 27.37;" xml:space="preserve">
<style type="text/css">
	.st0{fill:#436AB2;}
	.st1{fill:none;}
	.st2{fill:none;stroke:#7AC25B;}
	.st3{fill:#7AC25B;}
	.st4{fill:#11B37D;}
	.st5{fill:#B1D235;}
	.st6{fill:#139346;}
	.st7{fill:#F6F6F6;}
	.st8{fill:#8F54A1;}
	.st9{enable-background:new    ;}
	.st10{fill:#CBCBCA;}
	.st11{fill:#FFFFFF;}
	.st12{fill:#CC5641;}
	.st13{fill:#4D4D4E;}
	.st14{fill:#F59595;}
	.st15{fill:#EE6161;}
	.st16{fill:#F8B1B1;}
	.st17{fill:#F37C7C;}
	.st18{fill:none;stroke:#FFFFFF;stroke-width:4;}
	.st19{fill:none;stroke:#FFFFFF;stroke-width:3;}
</style>
<g>
	<path id="Path_377" class="st3" d="M10.41,20.96v5.52c0,0.49,0.4,0.89,0.89,0.89c0.28,0,0.55-0.14,0.72-0.36l3.23-4.39L10.41,20.96
		z"/>
	<path id="Path_378" class="st3" d="M28.19,0.17c-0.27-0.2-0.63-0.22-0.93-0.07L0.48,14.09c-0.44,0.23-0.61,0.77-0.38,1.2
		c0.11,0.2,0.28,0.36,0.5,0.43l7.44,2.54L23.9,4.71L11.63,19.49l12.48,4.26c0.09,0.03,0.19,0.05,0.29,0.05
		c0.44,0,0.82-0.32,0.88-0.76l3.27-22.02C28.6,0.69,28.46,0.36,28.19,0.17L28.19,0.17z"/>
</g>
</svg>
