<?xml version="1.0" encoding="utf-8"?>
<!-- Generator: Adobe Illustrator 24.1.0, SVG Export Plug-In . SVG Version: 6.00 Build 0)  -->
<svg version="1.1" id="Layer_1" xmlns="http://www.w3.org/2000/svg" xmlns:xlink="http://www.w3.org/1999/xlink" x="0px" y="0px"
	 viewBox="0 0 151 151" style="enable-background:new 0 0 151 151;" xml:space="preserve">
<style type="text/css">
	.st0{fill:#436AB2;}
	.st1{fill:none;}
	.st2{fill:none;stroke:#7AC25B;}
	.st3{fill:#7AC25B;}
	.st4{fill:#11B37D;}
	.st5{fill:#B1D235;}
	.st6{fill:#139346;}
	.st7{fill:#F6F6F6;}
	.st8{fill:#8F54A1;}
	.st9{enable-background:new    ;}
	.st10{fill:#CBCBCA;}
	.st11{fill:#FFFFFF;}
	.st12{fill:#CC5641;}
	.st13{fill:#4D4D4E;}
	.st14{fill:#F59595;}
	.st15{fill:#EE6161;}
	.st16{fill:#F8B1B1;}
	.st17{fill:#F37C7C;}
	.st18{fill:none;stroke:#FFFFFF;stroke-width:4;}
	.st19{fill:none;stroke:#FFFFFF;stroke-width:3;}
</style>
<g id="Group_1010" transform="translate(-396 -1402)">
	<circle id="Ellipse_68" class="st3" cx="471.5" cy="1477.5" r="75.5"/>
	<path id="Subtraction_1" class="st11" d="M472.42,1517.18h-0.72c-0.07-0.03-0.15-0.07-0.22-0.1l-0.1-0.05l-0.15-0.07
		c-0.24-0.11-0.49-0.23-0.73-0.34c-0.43-0.2-0.86-0.41-1.29-0.61l-1.27-0.61c-2.1-1-4.57-2.17-6.99-3.33l-6.2-2.96l-2.99-1.43
		c-5.07-2.42-10.46-4.99-15.74-7.51c-1.11-0.41-1.98-1.29-2.39-2.41c-0.24-0.79-0.36-1.62-0.36-2.45
		c-0.02-7.19-0.02-14.75,0.01-22.44c0.08-0.54-0.25-1.06-0.78-1.21c-0.52-0.21-1.03-0.44-1.6-0.7c-0.59-0.27-1.27-0.58-1.94-0.83
		c-1.38-0.36-2.49-1.37-2.97-2.71v-0.53c0.06-0.15,0.12-0.3,0.18-0.45l0.01-0.02l0.01-0.02c0.12-0.34,0.28-0.66,0.46-0.97l0.49-0.78
		c2.08-3.35,4.23-6.81,6.44-10.2c0.43-0.64,1.03-1.15,1.73-1.47c6.64-2.98,34-15,36.4-15c2.84,0,26.93,10.5,34.84,13.95l0.04,0.02
		l0.52,0.23l1.37,0.6c0.89,0.35,1.66,0.97,2.18,1.77c1.41,2.27,2.84,4.54,4.21,6.73l0.46,0.74c0.68,1.08,1.38,2.2,2.07,3.3
		c0.96,1.2,0.77,2.96-0.43,3.92c-0.27,0.21-0.57,0.38-0.9,0.48c-1.49,0.67-2.95,1.33-4.44,1.94c-0.53,0.15-0.86,0.66-0.79,1.2
		c0.01,3.53,0.01,7.15,0.01,10.54c0,3.99,0,8.12,0.02,12.18c0.15,2.06-1.05,3.98-2.98,4.73c-3.4,1.58-6.81,3.21-10.1,4.79
		c-1.04,0.5-2.07,0.99-3.11,1.49l-0.3,0.14L472.42,1517.18L472.42,1517.18z M475.07,1481.48l-0.15,0.08v28.25
		c0.09-0.03,0.17-0.06,0.25-0.09l0.07-0.02l0.02-0.01c0.19-0.06,0.37-0.14,0.55-0.22l4.21-2.01l4.13-1.97
		c6.27-2.99,13.38-6.39,20.32-9.69c0.51-0.17,0.84-0.68,0.78-1.22c-0.02-4.66-0.02-9.4-0.02-13.99v-5.15c0-0.16-0.01-0.32-0.03-0.5
		v-0.02c-0.01-0.11-0.02-0.22-0.03-0.35l-0.21,0.08l-0.1,0.04c-0.25,0.09-0.46,0.17-0.67,0.26c-3.14,1.37-6.5,2.84-10.28,4.5
		l-1.12,0.49l-0.46,0.2c-3.79,1.66-7.72,3.38-11.57,5.06c-0.5,0.24-1.05,0.37-1.61,0.39c-1.05-0.05-2-0.66-2.47-1.61
		c-0.19-0.29-0.37-0.58-0.54-0.87l-0.04-0.07c-0.16-0.25-0.31-0.5-0.46-0.74c-0.12-0.18-0.24-0.36-0.36-0.53
		C475.21,1481.67,475.14,1481.57,475.07,1481.48L475.07,1481.48z M438.88,1474.52L438.88,1474.52v1.13c0,1.55,0,3.11,0,4.66v0.03
		v0.79c0,4.36,0,8.86-0.02,13.29c-0.08,0.62,0.29,1.21,0.89,1.42c6.83,3.24,13.88,6.6,20.09,9.57l0.08,0.04l8.49,4.05
		c0.17,0.08,0.34,0.14,0.52,0.19l0,0l0.29,0.1c0-0.44,0-0.88,0-1.3v-0.41c0-1.25-0.01-2.67,0.02-4.05c0.07-0.57-0.27-1.1-0.81-1.29
		c-3.26-1.53-6.56-3.11-9.76-4.64l-0.19-0.09l-3.49-1.67l-1.88-0.9l-1.24-0.59c-2.08-0.99-3.96-1.89-5.86-2.8
		c-1.11-0.48-1.77-1.63-1.62-2.83c0.04-0.54,0.24-1.06,0.59-1.48c0.34-0.43,0.83-0.72,1.37-0.8c0.2-0.03,0.4-0.04,0.6-0.04
		c0.62,0,1.23,0.12,1.8,0.37c5.01,2.34,10.26,4.85,14.48,6.86c1.66,0.79,3.31,1.58,4.97,2.37c0.19,0.09,0.39,0.18,0.61,0.27
		l0.08,0.03l0.29,0.12v-15.4c-0.63,0.71-1.19,1.48-1.67,2.29l-0.01,0.02c-0.45,0.99-1.41,1.65-2.49,1.72
		c-0.59-0.02-1.16-0.17-1.69-0.42c-3.69-1.61-7.49-3.27-10.83-4.74l-0.41-0.18c-3.94-1.72-8.01-3.5-12.01-5.25
		c-0.21-0.09-0.43-0.18-0.68-0.27l-0.04-0.02h-0.01C439.2,1474.65,439.05,1474.59,438.88,1474.52L438.88,1474.52z M506.7,1459.34
		c-0.2,0.01-0.4,0.06-0.58,0.16c-6.79,2.99-13.7,6.01-20.39,8.94l-1.54,0.67l-1.8,0.79l-5.12,2.24c-0.19,0.08-0.37,0.17-0.61,0.29
		l-0.02,0.01c-0.14,0.07-0.29,0.14-0.47,0.23c0.32,0.5,0.66,1.04,1.02,1.6l0.04,0.07c0.92,1.44,1.79,2.8,2.63,4.2
		c0.08,0.14,0.19,0.28,0.31,0.39c0.12,0.11,0.28,0.17,0.44,0.17c0.1,0,0.2-0.02,0.3-0.05c0.11-0.03,0.21-0.07,0.31-0.12
		c7.07-3.11,14.2-6.23,21.09-9.25l7.84-3.43c0.19-0.08,0.36-0.17,0.59-0.29l0.35-0.18c-0.35-0.56-0.7-1.11-1.05-1.67
		c-0.85-1.36-1.73-2.76-2.58-4.17C507.21,1459.52,506.99,1459.35,506.7,1459.34L506.7,1459.34z M437.41,1459.43
		c-0.22,0-0.37,0.04-0.42,0.11c-1.04,1.56-2.03,3.12-3.08,4.78l-0.07,0.12c-0.12,0.2-0.25,0.4-0.38,0.61l-0.23,0.36
		c-0.02,0.03-0.03,0.05-0.05,0.08l-0.06,0.1c-0.05,0.08-0.1,0.15-0.15,0.23l0.03,0.01l0.12,0.06h0.01c0.15,0.07,0.29,0.13,0.4,0.18
		l0,0c0.15,0.07,0.28,0.13,0.41,0.19l1.47,0.64c0.32,0.14,0.64,0.28,0.96,0.42l0.42,0.18c1.55,0.67,3.15,1.37,4.72,2.06l1.82,0.8
		l1.82,0.8c5.48,2.4,11.69,5.12,17.64,7.74c0.08,0.04,0.17,0.07,0.27,0.11c0.13,0.05,0.27,0.08,0.41,0.08
		c0.32,0,0.57-0.19,0.83-0.62c0.7-1.19,1.46-2.37,2.13-3.42c0.35-0.54,0.71-1.1,1.05-1.66c0.1-0.16,0.19-0.32,0.27-0.49l0.02-0.05
		c0.04-0.07,0.07-0.14,0.11-0.21l-0.26-0.12c-0.25-0.12-0.47-0.22-0.69-0.32c-8.3-3.63-14.75-6.45-21.21-9.28
		c-0.7-0.31-1.4-0.62-2.11-0.92l-0.09-0.04c-1.81-0.8-3.69-1.62-5.54-2.41c-0.01-0.01-0.03-0.01-0.04-0.02l-0.05-0.02h-0.01h-0.01
		h-0.01h-0.01C437.72,1459.45,437.56,1459.43,437.41,1459.43L437.41,1459.43z M472.04,1443.66c-1.4,0-21.85,8.81-24.88,10.14
		c-0.72,0.32-1.45,0.64-2.21,0.97l-0.48,0.21l-1,0.44l-0.36,0.16c0.11,0.06,0.2,0.12,0.27,0.16l0.08,0.05
		c0.12,0.08,0.25,0.15,0.39,0.22l2.6,1.14l0.25,0.11c8.12,3.55,16.51,7.23,24.77,10.82c0.17,0.07,0.36,0.1,0.54,0.1
		c0.24,0,0.48-0.04,0.71-0.14c7.85-3.41,15.81-6.9,23.52-10.27l0.22-0.1l3.71-1.63c0.15-0.07,0.3-0.15,0.44-0.24l0.01-0.01
		c0.11-0.07,0.21-0.13,0.33-0.19c-0.15-0.08-0.28-0.14-0.4-0.2l-0.06-0.03c-0.15-0.08-0.28-0.14-0.4-0.2
		C494.88,1452.9,473.45,1443.66,472.04,1443.66L472.04,1443.66z"/>
</g>
</svg>
