<?xml version="1.0" encoding="utf-8"?>
<!-- Generator: Adobe Illustrator 24.1.0, SVG Export Plug-In . SVG Version: 6.00 Build 0)  -->
<svg version="1.1" id="Layer_1" xmlns="http://www.w3.org/2000/svg" xmlns:xlink="http://www.w3.org/1999/xlink" x="0px" y="0px"
	 viewBox="0 0 25.86 32.62" style="enable-background:new 0 0 25.86 32.62;" xml:space="preserve">
<style type="text/css">
	.st0{fill:#436AB2;}
	.st1{fill:none;}
	.st2{fill:none;stroke:#7AC25B;}
	.st3{fill:#7AC25B;}
	.st4{fill:#11B37D;}
	.st5{fill:#B1D235;}
	.st6{fill:#139346;}
	.st7{fill:#F6F6F6;}
	.st8{fill:#8F54A1;}
	.st9{enable-background:new    ;}
	.st10{fill:#CBCBCA;}
	.st11{fill:#FFFFFF;}
	.st12{fill:#CC5641;}
	.st13{fill:#4D4D4E;}
	.st14{fill:#F59595;}
	.st15{fill:#EE6161;}
	.st16{fill:#F8B1B1;}
	.st17{fill:#F37C7C;}
	.st18{fill:none;stroke:#FFFFFF;stroke-width:4;}
	.st19{fill:none;stroke:#FFFFFF;stroke-width:3;}
</style>
<path id="Path_7514" class="st0" d="M22.04,1.98h-9.77c-1.02-1.85-3.34-2.52-5.19-1.5c-0.63,0.35-1.15,0.87-1.5,1.5H3.82
	C1.71,1.98,0,3.69,0,5.8v23c0,2.11,1.71,3.82,3.82,3.82h18.22c2.11,0,3.82-1.71,3.82-3.82v-23C25.86,3.69,24.15,1.98,22.04,1.98z
	 M23.32,28.8c0,0.7-0.57,1.27-1.27,1.27H3.82c-0.7,0-1.27-0.57-1.27-1.27v-23c0-0.7,0.57-1.27,1.27-1.27h6.38v9.11
	c0,0.7-0.57,1.27-1.27,1.27c-0.7,0-1.27-0.57-1.27-1.27V7.52H5.1v6.12c0,2.11,1.71,3.82,3.82,3.82s3.82-1.71,3.82-3.82V4.52h9.3
	c0.7,0,1.27,0.57,1.27,1.28V28.8z M5.1,24.98h10.51v2.55H5.1V24.98z M5.1,19.95h15.61v2.55H5.1V19.95z M15.23,14.98h5.48v2.55h-5.48
	V14.98z M15.23,9.94h5.48v2.55h-5.48V9.94z"/>
</svg>
