<?xml version="1.0" encoding="utf-8"?>
<!-- Generator: Adobe Illustrator 24.1.0, SVG Export Plug-In . SVG Version: 6.00 Build 0)  -->
<svg version="1.1" id="Layer_1" xmlns="http://www.w3.org/2000/svg" xmlns:xlink="http://www.w3.org/1999/xlink" x="0px" y="0px"
	 viewBox="0 0 58.5 68.04" style="enable-background:new 0 0 58.5 68.04;" xml:space="preserve">
<style type="text/css">
	.st0{fill:#436AB2;}
	.st1{fill:none;}
	.st2{fill:none;stroke:#7AC25B;}
	.st3{fill:#7AC25B;}
	.st4{fill:#11B37D;}
	.st5{fill:#B1D235;}
	.st6{fill:#139346;}
	.st7{fill:#F6F6F6;}
	.st8{fill:#8F54A1;}
	.st9{enable-background:new    ;}
	.st10{fill:#CBCBCA;}
	.st11{fill:#FFFFFF;}
	.st12{fill:#CC5641;}
	.st13{fill:#4D4D4E;}
	.st14{fill:#F59595;}
	.st15{fill:#EE6161;}
	.st16{fill:#F8B1B1;}
	.st17{fill:#F37C7C;}
	.st18{fill:none;stroke:#FFFFFF;stroke-width:4;}
	.st19{fill:none;stroke:#FFFFFF;stroke-width:3;}
</style>
<g id="zbc57b" transform="translate(-663.435 -0.665)">
	<g id="Group_937" transform="translate(663.435 0.665)">
		<path id="Path_7521" class="st0" d="M53.27,68.04H5.17c-0.12-0.05-0.24-0.09-0.37-0.13c-3.18-0.58-5.29-3.64-4.71-6.82
			c0.04-0.24,0.11-0.49,0.18-0.72c0.61-1.89,1.34-3.75,2.18-5.55c1.69-3.59,4.36-6.1,8.43-6.62c2.03-0.26,4.11-0.16,6.16-0.22
			c0.25-0.01,0.49,0,0.68,0c-1.03-1.16-2.05-2.27-2.99-3.43c-0.26-0.38-0.69-0.59-1.15-0.57c-5.49,0.19-10.1-4.11-10.29-9.6
			c-0.01-0.24-0.01-0.47,0-0.71c0-2.7-0.03-5.4,0.01-8.1c0.05-4.13,1.11-8.19,3.1-11.82c2.63-4.97,6.83-8.95,11.94-11.3
			c4.62-2.22,9.82-2.96,14.88-2.11c5.94,0.92,11.37,3.92,15.31,8.46c4.09,4.56,6.42,10.43,6.55,16.56c0.09,2.85,0.04,5.71,0.02,8.57
			c0.11,5.19-3.85,9.56-9.02,9.96c-1.36,0.02-2.62,0.71-3.36,1.85c-0.67,0.8-1.4,1.55-2.19,2.24h0.77c1.55,0.01,3.1-0.03,4.65,0.03
			c3.76,0.02,7.23,2.01,9.15,5.24c1.42,2.35,2.49,4.9,3.16,7.56c0.65,2.21-0.2,4.58-2.11,5.88C55.26,67.25,54.29,67.7,53.27,68.04z
			 M43.1,32.03h-5.74c-1.98,0.05-3.93-0.52-5.58-1.63c-0.93-0.72-1.83-1.48-2.69-2.29c-0.04,0.08-0.08,0.16-0.13,0.24
			c-1.99,2.45-5.02,3.81-8.17,3.68c-1.62-0.02-3.23,0-4.85,0c-0.21,0-0.42,0.02-0.63,0.03c-0.62,7.12,3.29,13.22,9.74,15.27
			c5.78,1.84,11.45-0.62,13.74-3.35h-0.42c-1.7,0-3.41,0.03-5.11-0.01c-1.08,0.04-1.99-0.8-2.03-1.88c-0.01-0.33,0.06-0.65,0.2-0.95
			c0.37-0.76,1.17-1.22,2.01-1.14c2.79,0.01,5.58,0,8.34,0C42.95,37.52,43.41,34.76,43.1,32.03z M15.3,28.02
			c2.14,0,4.22,0.06,6.29-0.02c1.78-0.06,3.43-0.95,4.46-2.41c0.75-1.05,1.16-2.3,1.19-3.59c0.03-0.92,0.69-1.7,1.59-1.88
			c0.83-0.18,1.68,0.2,2.09,0.95c0.17,0.38,0.28,0.78,0.3,1.2c0.13,3.31,2.91,5.9,6.23,5.78c1.73,0.01,3.45,0,5.18,0
			c0.17,0,0.34-0.03,0.52-0.04c0.34-5.79-1.48-10.6-6.45-13.77c-4.47-3.12-10.41-3.14-14.9-0.04C16.79,17.36,14.95,22.18,15.3,28.02
			L15.3,28.02z M50.99,24.22c-0.51-7.52-4.93-14.23-11.64-17.67c-7.53-3.84-15.04-3.48-22.13,1.13c-5.95,3.87-9.11,9.55-9.86,16.55
			L11.36,24c1.03-8.8,8.27-15.57,17.13-15.99c3.93-0.19,7.8,0.96,10.99,3.25c4.24,2.96,7,7.6,7.58,12.73L50.99,24.22z M33.22,64.05
			h12.68c2.15,0,4.29,0.02,6.44,0c1.07,0.1,2.02-0.69,2.12-1.76c0.03-0.34-0.03-0.68-0.17-0.99c-0.7-1.81-1.39-3.63-2.25-5.37
			c-0.96-2.21-3.08-3.7-5.49-3.85c-1.28-0.1-2.56-0.06-3.84-0.12c-0.35-0.03-0.69,0.14-0.87,0.45c-2.75,3.72-5.5,7.43-8.27,11.13
			C33.48,63.67,33.38,63.82,33.22,64.05z M25.14,64.05c-0.01-0.07-0.02-0.14-0.05-0.21c-2.87-3.87-5.75-7.74-8.64-11.6
			c-0.14-0.16-0.33-0.25-0.54-0.27c-1.13-0.02-2.26-0.03-3.39,0.02c-2.67,0-5.08,1.57-6.16,4.01c-0.79,1.65-1.39,3.39-2.15,5.05
			c-0.53,1.03-0.12,2.29,0.91,2.81c0.39,0.2,0.82,0.27,1.25,0.21c2.12-0.09,4.25-0.02,6.37-0.02L25.14,64.05z M21.25,52l7.97,10.71
			L37.19,52H21.25z M46.14,39.92c2.21-0.34,4.02-1.92,4.68-4.05c0.64-2.02,0.33-4.13,0.27-6.2c-0.08-0.83-0.75-1.49-1.58-1.57
			c-0.77-0.04-1.54-0.05-2.31-0.02C47.02,32.03,47.6,35.98,46.14,39.92L46.14,39.92z M11.25,28.06c-0.74,0-1.4-0.03-2.06,0.01
			c-0.98,0.01-1.79,0.77-1.86,1.75c-0.08,1.77-0.04,3.54,0.11,5.3c0.38,2.47,2.34,4.39,4.81,4.71C10.85,36,11.41,32.03,11.25,28.06z
			"/>
	</g>
</g>
</svg>
