<?xml version="1.0" encoding="utf-8"?>
<!-- Generator: Adobe Illustrator 24.1.0, SVG Export Plug-In . SVG Version: 6.00 Build 0)  -->
<svg version="1.1" id="Layer_1" xmlns="http://www.w3.org/2000/svg" xmlns:xlink="http://www.w3.org/1999/xlink" x="0px" y="0px"
	 viewBox="0 0 35 35" style="enable-background:new 0 0 35 35;" xml:space="preserve">
<style type="text/css">
	.st0{fill:#436AB2;}
	.st1{fill:none;}
	.st2{fill:none;stroke:#7AC25B;}
	.st3{fill:#7AC25B;}
	.st4{fill:#11B37D;}
	.st5{fill:#B1D235;}
	.st6{fill:#139346;}
	.st7{fill:#F6F6F6;}
	.st8{fill:#8F54A1;}
	.st9{enable-background:new    ;}
	.st10{fill:#CBCBCA;}
	.st11{fill:#FFFFFF;}
	.st12{fill:#CC5641;}
	.st13{fill:#4D4D4E;}
	.st14{fill:#F59595;}
	.st15{fill:#EE6161;}
	.st16{fill:#F8B1B1;}
	.st17{fill:#F37C7C;}
	.st18{fill:none;stroke:#FFFFFF;stroke-width:4;}
	.st19{fill:none;stroke:#FFFFFF;stroke-width:3;}
</style>
<g>
	<g id="Ellipse_63" transform="translate(336 1638)">
		<circle class="st1" cx="-318.5" cy="-1620.5" r="17.5"/>
		<circle class="st2" cx="-318.5" cy="-1620.5" r="17"/>
	</g>
	<g id="Group_811" transform="translate(345.875 1647.844)">
		<path id="Path_374" class="st3" d="M-334.07-1638c-0.98-0.08-1.83,0.65-1.92,1.62c-0.08,0.98,0.65,1.83,1.62,1.92
			c0.08,0.01,0.17,0.01,0.25,0h0.02c0.98,0.08,1.84-0.64,1.92-1.62c0.08-0.98-0.64-1.84-1.62-1.92
			C-333.89-1638.01-333.98-1638.01-334.07-1638z"/>
		<path id="Path_375" class="st3" d="M-335.8-1633.06h3.41v10.25h-3.41V-1633.06z"/>
		<path id="Path_376" class="st3" d="M-324.03-1633.3c-1.22,0.11-2.34,0.74-3.07,1.73v-1.49h-3.41v10.25h3.41v-5.72
			c-0.01-0.28,0.02-0.56,0.11-0.83c0.26-0.74,0.96-1.24,1.75-1.25c1.23,0,1.72,0.94,1.72,2.32v5.48h3.41v-5.88
			C-320.11-1631.84-321.79-1633.3-324.03-1633.3L-324.03-1633.3z"/>
	</g>
</g>
</svg>
