<svg xmlns="http://www.w3.org/2000/svg" width="236.62" height="44.708" viewBox="0 0 236.62 44.708"><defs><style>.a{fill:#14b37d;}.b{fill:#b2d233;}.c{fill:#0e9319;}</style></defs><g transform="translate(-1372.505 -831.641)"><g transform="translate(1474.816 841.414)"><g transform="translate(0 0)"><path d="M1574.3,850.809l-1.607,7.559a4.835,4.835,0,0,1-5.016,3.849c-2.395,0-3.848-1.322-3.307-3.857l1.607-7.551h1.956l-1.608,7.551c-.309,1.445.24,2.3,1.755,2.3a2.56,2.56,0,0,0,2.674-2.357l1.592-7.49Z" transform="translate(-1562.622 -850.191)"/><path d="M1585.481,856.011l-.146.958a3.76,3.76,0,0,1,2.7-1.113c1.7,0,2.4.989,1.979,2.984l-1.174,5.534h-1.879l1.152-5.425c.224-1.028-.07-1.562-1.074-1.562a2.355,2.355,0,0,0-1.963,1.029l-1.267,5.958h-1.879l1.778-8.362Z" transform="translate(-1570.716 -852.502)"/><path d="M1605.148,856.011h1.715l-1.808,8.486a4.425,4.425,0,0,1-4.607,3.4,3.339,3.339,0,0,1-2.914-1.422l1.159-1.159a2.2,2.2,0,0,0,1.987,1.058,2.338,2.338,0,0,0,2.449-1.878l.186-.858a3.528,3.528,0,0,1-2.38.89c-2.52,0-2.891-2.365-2.435-4.522.448-2.094,1.948-4.151,4.306-4.151a2.227,2.227,0,0,1,2.047,1.005Zm-1.492,6,.788-3.686A1.412,1.412,0,0,0,1603,857.4c-1.577,0-2.334,1.508-2.6,2.774s-.177,2.814,1.4,2.814A2.316,2.316,0,0,0,1603.656,862.016Z" transform="translate(-1577.86 -852.502)"/><path d="M1622.556,856.007l-1.175,5.534H1619.5l1.151-5.425c.216-1.028-.069-1.562-1.083-1.562a2.428,2.428,0,0,0-2.017,1.029l-1.978,9.336h-1.886l3.246-15.249h1.878l-.95,4.467a3.762,3.762,0,0,1,2.705-1.113C1622.27,853.023,1622.974,854.012,1622.556,856.007Z" transform="translate(-1585.258 -849.669)"/><path d="M1640.859,864.5l.131-.873a3.7,3.7,0,0,1-2.628,1.028c-1.113,0-1.786-.426-2.018-1.283a3.711,3.711,0,0,1-2.836,1.283c-1.956,0-2.5-1.167-2.111-3.014l1.167-5.5h1.886l-1.159,5.449c-.225,1.051.1,1.53,1.167,1.53a2.066,2.066,0,0,0,1.879-1.237l1.22-5.742h1.871l-1.175,5.51c-.208.982.216,1.469,1.191,1.469a2.089,2.089,0,0,0,1.793-.921l1.291-6.059h1.878l-1.777,8.362Z" transform="translate(-1593.311 -852.633)"/><path d="M1658.579,866.244l-.317,1.5h-3.818l2.527-11.887h1.878l-2.2,10.388Z" transform="translate(-1603.919 -852.502)"/><path d="M1675.709,864.5l.131-.873a3.7,3.7,0,0,1-2.628,1.028c-1.114,0-1.786-.426-2.018-1.283a3.712,3.712,0,0,1-2.836,1.283c-1.956,0-2.5-1.167-2.111-3.014l1.167-5.5h1.886l-1.16,5.449c-.224,1.051.1,1.53,1.167,1.53a2.066,2.066,0,0,0,1.879-1.237l1.22-5.742h1.871l-1.175,5.51c-.208.982.216,1.469,1.191,1.469a2.089,2.089,0,0,0,1.793-.921l1.29-6.059h1.878l-1.777,8.362Z" transform="translate(-1609.27 -852.633)"/><path d="M1691.559,858.7l1.924-9.035h1.878l-1.9,8.927c-.216,1.028.07,1.562,1.082,1.562a2.431,2.431,0,0,0,2.017-1.028l1.267-5.952h1.878l-2.5,11.732h-1.878l.919-4.336a3.769,3.769,0,0,1-2.706,1.122C1691.845,861.7,1691.134,860.7,1691.559,858.7Z" transform="translate(-1620.859 -849.669)"/><path d="M1717.547,864.5l.131-.873a3.7,3.7,0,0,1-2.628,1.028c-1.114,0-1.786-.426-2.018-1.283a3.711,3.711,0,0,1-2.836,1.283c-1.956,0-2.5-1.167-2.111-3.014l1.167-5.5h1.886l-1.159,5.449c-.225,1.051.1,1.53,1.167,1.53a2.066,2.066,0,0,0,1.879-1.237l1.22-5.742h1.871l-1.175,5.51c-.208.982.216,1.469,1.191,1.469a2.089,2.089,0,0,0,1.793-.921l1.291-6.059h1.878l-1.777,8.362Z" transform="translate(-1628.427 -852.633)"/><path d="M1743.859,853.178l-1.777,8.362h-1.77l.147-.967a3.737,3.737,0,0,1-2.705,1.122c-1.7,0-2.4-1-1.979-2.984l1.6-7.543h-1.908l.317-1.5h3.788l-1.894,8.934c-.224,1.021.069,1.554,1.074,1.554a2.336,2.336,0,0,0,1.963-1.028l1.267-5.952Z" transform="translate(-1641.019 -849.669)"/><path d="M1568.168,901.288l-.325,1.5h-5.14c-1.569,0-1.538-1.2-1.407-1.8s.548-1.5,3.3-3.424a12.326,12.326,0,0,0,2.752-2.442c.432-.565.873-1.956-.208-2.4a1.238,1.238,0,0,0-.48-.1c-.966,0-1.67,1.213-1.778,1.492l-1.431-.8a3.92,3.92,0,0,1,3.626-2.412,2.668,2.668,0,0,1,2.35,1.16c1.159,1.939-.6,4.343-2.659,5.811-2.172,1.546-3.022,2.242-3.262,2.759-.154.317-.115.657.325.657Z" transform="translate(-1561.24 -868.549)"/><path d="M1591.008,893.884l-1.175,5.534h-1.878l1.152-5.425c.224-1.028-.07-1.562-1.074-1.562a2.356,2.356,0,0,0-1.964,1.028l-1.267,5.959h-1.762l.146-.943-.007-.016a3.757,3.757,0,0,1-2.7,1.113c-1.7,0-2.411-1-1.985-2.991l1.174-5.526h1.878l-1.152,5.417c-.216,1.029.07,1.562,1.082,1.562a2.338,2.338,0,0,0,1.964-1.028l1.26-5.951h1.77l-.147.966a3.742,3.742,0,0,1,2.706-1.12C1590.731,890.9,1591.434,891.9,1591.008,893.884Z" transform="translate(-1569.087 -868.549)"/><path d="M1613.424,899.548l.131-.874a3.7,3.7,0,0,1-2.628,1.029c-1.113,0-1.786-.426-2.018-1.284a3.711,3.711,0,0,1-2.836,1.284c-1.956,0-2.5-1.167-2.111-3.015l1.167-5.5h1.887l-1.16,5.449c-.224,1.051.1,1.53,1.167,1.53a2.066,2.066,0,0,0,1.879-1.237l1.22-5.742h1.871l-1.175,5.51c-.208.982.216,1.468,1.191,1.468a2.09,2.09,0,0,0,1.793-.92l1.291-6.059h1.878l-1.778,8.362Z" transform="translate(-1580.748 -868.68)"/><path d="M1637.914,902.918l.9-4.244a3.6,3.6,0,0,1-2.559,1.029c-1.129,0-1.8-.433-2.032-1.284a3.764,3.764,0,0,1-2.883,1.284c-1.91,0-2.451-1.167-2.057-3.022l1.167-5.5h1.879l-1.16,5.441c-.224,1.058.1,1.538,1.175,1.538a2.058,2.058,0,0,0,1.871-1.245l1.221-5.734h1.87l-1.175,5.5c-.208.982.216,1.476,1.183,1.476a2.1,2.1,0,0,0,1.8-.92l1.291-6.059h1.878l-2.5,11.732Z" transform="translate(-1592.344 -868.68)"/><path d="M1662.618,895.121c-.533,2.488-2.241,4.452-4.831,4.452-2.574,0-3.524-1.94-3.014-4.32a5.1,5.1,0,0,1,4.838-4.352C1662.054,890.9,1663.121,892.755,1662.618,895.121Zm-4.521,2.921c1.6,0,2.357-1.562,2.636-2.875.271-1.283.046-2.736-1.469-2.736-1.584,0-2.342,1.593-2.6,2.829C1656.374,896.62,1656.575,898.042,1658.1,898.042Z" transform="translate(-1604.009 -868.549)"/><path d="M1680.414,897.911l-.316,1.5h-1.917l-.711,3.377h-1.878l.865-4.1a3.486,3.486,0,0,1-2.357.89c-2.458,0-2.922-2.289-2.474-4.406.471-2.2,1.917-4.267,4.3-4.267a2.243,2.243,0,0,1,2.071,1.005l.294-.85h1.661l-1.453,6.856Zm-2.829-4.53a1.389,1.389,0,0,0-1.429-.935c-1.538,0-2.35,1.538-2.628,2.852-.271,1.259-.007,2.735,1.46,2.735a2.287,2.287,0,0,0,1.817-.974Z" transform="translate(-1611.717 -868.549)"/><path d="M1701.266,888.222l-1.777,8.362h-1.77l.147-.966a3.737,3.737,0,0,1-2.705,1.122c-1.7,0-2.4-1-1.979-2.984l1.6-7.543h-1.908l.317-1.5h3.787l-1.894,8.934c-.224,1.021.069,1.554,1.074,1.554a2.335,2.335,0,0,0,1.963-1.028l1.267-5.951Z" transform="translate(-1621.516 -865.716)"/><path d="M1712.177,891.055l-.146.958a3.761,3.761,0,0,1,2.7-1.113c1.7,0,2.4.989,1.979,2.984l-1.174,5.534h-1.879l1.152-5.425c.224-1.028-.07-1.562-1.074-1.562a2.357,2.357,0,0,0-1.964,1.028l-1.267,5.959h-1.878l1.778-8.362Z" transform="translate(-1628.731 -868.549)"/><path d="M1728.991,898.049l-.317,1.5h-3.8l1.778-8.362h1.878l-1.461,6.863Z" transform="translate(-1636.168 -868.68)"/><path d="M1745.035,894.108l-.317,1.5h-1.136l-.2.9a3.607,3.607,0,0,1-3.586,3.069c-2.056,0-2.419-1.245-2.071-2.868a3.441,3.441,0,0,1,3.284-2.6h.9c.078-.571-.062-1.631-1.871-1.631a4.213,4.213,0,0,0-3.238,1.592l-1.847,8.718h-1.878l2.511-11.732h1.762l-.216,1.26a4.752,4.752,0,0,1,3.485-1.415,2.894,2.894,0,0,1,3.193,3.208Zm-3.478,2.326.178-.826h-1.175c-1.692,0-2.171,2.465-.664,2.465C1740.931,898.072,1741.348,897.4,1741.557,896.434Z" transform="translate(-1639.923 -868.549)"/><path d="M1753.306,902.935l.317-1.477a2.459,2.459,0,0,0,.58.07,1.173,1.173,0,0,0,1.26-1.043l1.979-9.313h1.878l-1.963,9.244a2.972,2.972,0,0,1-3.069,2.651A3.355,3.355,0,0,1,1753.306,902.935Z" transform="translate(-1649.188 -868.673)"/><path d="M1768.3,891.055l-.146.958a3.76,3.76,0,0,1,2.7-1.113c1.7,0,2.4.989,1.979,2.984l-1.175,5.534h-1.878l1.152-5.425c.224-1.028-.07-1.562-1.074-1.562a2.357,2.357,0,0,0-1.964,1.028l-1.267,5.959h-1.878l1.778-8.362Z" transform="translate(-1654.431 -868.549)"/><path d="M1785.116,898.049l-.317,1.5H1781l1.778-8.362h1.878l-1.461,6.863Z" transform="translate(-1661.868 -868.68)"/><path d="M1801.91,888.222l-1.777,8.362h-1.77l.147-.966a3.737,3.737,0,0,1-2.705,1.122c-1.7,0-2.4-1-1.979-2.984l1.6-7.543h-1.909l.317-1.5h3.787l-1.894,8.934c-.224,1.021.069,1.554,1.074,1.554a2.334,2.334,0,0,0,1.963-1.028l1.268-5.951Z" transform="translate(-1667.601 -865.716)"/></g></g><path class="a" d="M1462.038,876.349h-89.415a44.489,44.489,0,0,1,5.742-21.934l5.4,3.113,11.2-6.466V838.128l-.425-.246a44.717,44.717,0,0,1,67.5,38.467Z" transform="translate(-0.054)"/><path class="b" d="M1394.48,837.9a44.892,44.892,0,0,0-16.169,16.534l-5.806-3.353V838.146l11.2-6.466Z" transform="translate(0 -0.018)"/><path class="c" d="M1399.81,843.4v12.935l-11.2,6.466-5.4-3.113a44.9,44.9,0,0,1,16.169-16.534Z" transform="translate(-4.904 -5.271)"/></g></svg>