<?xml version="1.0" encoding="utf-8"?>
<!-- Generator: Adobe Illustrator 24.1.0, SVG Export Plug-In . SVG Version: 6.00 Build 0)  -->
<svg version="1.1" id="Layer_1" xmlns="http://www.w3.org/2000/svg" xmlns:xlink="http://www.w3.org/1999/xlink" x="0px" y="0px"
	 viewBox="0 0 26.39 30.58" style="enable-background:new 0 0 26.39 30.58;" xml:space="preserve">
<style type="text/css">
	.st0{fill:#436AB2;}
	.st1{fill:none;}
	.st2{fill:none;stroke:#7AC25B;}
	.st3{fill:#7AC25B;}
	.st4{fill:#11B37D;}
	.st5{fill:#B1D235;}
	.st6{fill:#139346;}
	.st7{fill:#F6F6F6;}
	.st8{fill:#8F54A1;}
	.st9{enable-background:new    ;}
	.st10{fill:#CBCBCA;}
	.st11{fill:#FFFFFF;}
	.st12{fill:#CC5641;}
	.st13{fill:#4D4D4E;}
	.st14{fill:#F59595;}
	.st15{fill:#EE6161;}
	.st16{fill:#F8B1B1;}
	.st17{fill:#F37C7C;}
	.st18{fill:none;stroke:#FFFFFF;stroke-width:4;}
	.st19{fill:none;stroke:#FFFFFF;stroke-width:3;}
</style>
<path id="Path_7502" class="st3" d="M25.29,7.61c-2.62-5.57-8.73-8.6-14.74-7.32C5.96,1.07,2.17,4.31,0.68,8.73
	c-0.98,2.45-0.9,5.2,0.22,7.59c0.72,1.53,1.59,2.98,2.6,4.33c2.08,2.83,9.7,9.94,9.7,9.94s8.08-7.92,9.97-10.19
	c3.23-3.89,3.13-6.03,3.21-7.18C26.49,11.28,26.12,9.36,25.29,7.61z M13.19,17.5c-3,0.03-5.46-2.36-5.5-5.36
	c0.05-3,2.5-5.39,5.5-5.37c3.01-0.03,5.48,2.37,5.52,5.38C18.66,15.16,16.19,17.55,13.19,17.5L13.19,17.5z"/>
</svg>
