<?xml version="1.0" encoding="utf-8"?>
<!-- Generator: Adobe Illustrator 24.1.0, SVG Export Plug-In . SVG Version: 6.00 Build 0)  -->
<svg version="1.1" id="Layer_1" xmlns="http://www.w3.org/2000/svg" xmlns:xlink="http://www.w3.org/1999/xlink" x="0px" y="0px"
	 viewBox="0 0 147.86 20.73" style="enable-background:new 0 0 147.86 20.73;" xml:space="preserve">
<style type="text/css">
	.st0{fill:#436AB2;}
	.st1{fill:none;}
	.st2{fill:none;stroke:#7AC25B;}
	.st3{fill:#7AC25B;}
	.st4{fill:#11B37D;}
	.st5{fill:#B1D235;}
	.st6{fill:#139346;}
	.st7{fill:#F6F6F6;}
	.st8{fill:#8F54A1;}
	.st9{enable-background:new    ;}
	.st10{fill:#CBCBCA;}
	.st11{fill:#FFFFFF;}
	.st12{fill:#CC5641;}
	.st13{fill:#4D4D4E;}
	.st14{fill:#F59595;}
	.st15{fill:#EE6161;}
	.st16{fill:#F8B1B1;}
	.st17{fill:#F37C7C;}
	.st18{fill:none;stroke:#FFFFFF;stroke-width:4;}
	.st19{fill:none;stroke:#FFFFFF;stroke-width:3;}
</style>
<g id="Group_1080" transform="translate(5736 6852)">
	<path id="Path_7878" class="st7" d="M-5596.26-6841.85c0,0.57,0.05,1.14,0.07,1.72v0.25c-1-0.07-2-0.07-3,0
		c0.02-0.35,0.04-0.69,0.06-1.04v-0.26c0-2.12,0.01-4.24,0.02-6.36v-1.62c0-1.28-0.06-1.65-0.09-2.49c0.03,0,1.62,0.05,2.88-0.03
		c0.1-0.02,0.21,0.04,0.25,0.13c0.37,0.83,4.43,6.93,4.63,7.26c0-0.1-0.03-4.36-0.05-5.64c0-0.53-0.05-1.06-0.08-1.59v-0.12
		c0.99,0.05,1.99,0.05,2.98,0c0,0.17-0.05,1.25-0.05,1.63v7.39c0,0.84,0.07,2.69,0.07,2.78c-0.73-0.04-2,0.02-2.88,0.02
		c-0.15,0.02-0.29-0.07-0.34-0.21c-0.46-0.88-3.22-5.02-4.05-6.27c-0.17-0.26-0.31-0.55-0.47-0.82v5.3L-5596.26-6841.85z"/>
	<path id="Path_7879" class="st8" d="M-5634.42-6845.85c0.02,0.87-0.12,1.73-0.4,2.55c-0.22,0.66-0.56,1.27-0.99,1.8
		c-0.81,0.99-1.96,1.64-3.22,1.84c-0.67,0.12-1.35,0.14-2.03,0.06c-1.04-0.09-2.03-0.48-2.84-1.14c-0.86-0.71-1.48-1.65-1.78-2.72
		c-0.29-1.01-0.38-2.07-0.29-3.12c0.05-1.13,0.42-2.23,1.05-3.17c0.42-0.62,0.99-1.14,1.64-1.51c0.84-0.47,1.78-0.73,2.74-0.74
		c0.47-0.02,0.94,0,1.4,0.06c0.92,0.12,1.79,0.48,2.53,1.03c0.55,0.42,1.01,0.95,1.34,1.56c0.41,0.72,0.66,1.51,0.75,2.33
		C-5634.47-6846.63-5634.45-6846.24-5634.42-6845.85L-5634.42-6845.85z M-5640.21-6842.07c0.42-0.01,0.82-0.11,1.19-0.31
		c0.58-0.33,1.03-0.87,1.25-1.51c0.24-0.68,0.35-1.41,0.31-2.13c-0.01-0.46-0.08-0.92-0.2-1.36c-0.16-0.63-0.51-1.18-1.01-1.59
		c-0.51-0.39-1.14-0.56-1.78-0.49c-0.8,0.07-1.52,0.52-1.93,1.21c-0.25,0.39-0.41,0.82-0.49,1.27c-0.12,0.61-0.14,1.23-0.07,1.84
		c0.05,0.66,0.25,1.3,0.59,1.87c0.46,0.75,1.27,1.21,2.15,1.22L-5640.21-6842.07z"/>
	<path id="Path_7880" class="st8" d="M-5621.91-6845.84c0.05,0.88-0.08,1.75-0.37,2.58c-0.22,0.64-0.55,1.23-0.97,1.76
		c-0.81,1-1.97,1.66-3.24,1.85c-1.11,0.2-2.26,0.12-3.34-0.24c-0.91-0.31-1.72-0.87-2.32-1.63c-0.52-0.67-0.89-1.44-1.08-2.27
		c-0.26-1.12-0.3-2.27-0.12-3.41c0.13-0.98,0.51-1.91,1.1-2.7c0.47-0.64,1.09-1.15,1.8-1.5c0.74-0.38,1.56-0.59,2.4-0.6h0.87
		c1.06,0.03,2.09,0.38,2.96,0.98c1.05,0.75,1.79,1.86,2.09,3.12C-5621.95-6847.23-5621.88-6846.53-5621.91-6845.84L-5621.91-6845.84
		z M-5624.91-6845.94c-0.02-0.21-0.03-0.37-0.05-0.54c-0.05-0.68-0.26-1.33-0.62-1.9c-0.23-0.36-0.55-0.65-0.93-0.84
		c-0.51-0.25-1.09-0.32-1.65-0.21c-0.63,0.13-1.19,0.5-1.56,1.02c-0.28,0.39-0.47,0.84-0.55,1.31c-0.14,0.63-0.18,1.29-0.11,1.93
		c0.05,0.66,0.26,1.31,0.6,1.88c0.48,0.78,1.33,1.24,2.25,1.2c0.91-0.04,1.73-0.57,2.13-1.39c0.38-0.77,0.55-1.62,0.52-2.47
		L-5624.91-6845.94z"/>
	<path id="Path_7881" class="st7" d="M-5600.83-6851.82v2.64c-1.93-0.11-3.85-0.03-5.76-0.06c0,0.31-0.02,1.73-0.02,2.08h3.42
		c0.57,0,1.14-0.06,1.71-0.08c-0.07,0.87-0.07,1.75,0,2.62c-1.71-0.15-3.43-0.09-5.17-0.1v2.39c2.01-0.03,3.98,0.06,5.96-0.07
		c-0.06,0.88-0.06,1.76,0,2.63h-0.17c-0.23-0.02-0.46-0.04-0.69-0.05c-0.81-0.02-1.62-0.04-2.44-0.04h-3.55
		c-0.59,0-1.18,0.03-1.77,0.04h-0.31c0.02-0.13,0.04-0.24,0.05-0.34c0.02-0.31,0.06-0.6,0.06-0.9c0-2.82,0.01-5.65,0.02-8.47
		c0-0.71-0.11-2.18-0.11-2.22c1.47,0,2.93,0.02,4.39,0.02c1.46,0.04,2.91,0,4.37-0.11L-5600.83-6851.82z"/>
	<path id="Path_7882" class="st7" d="M-5617.56-6843.8c-0.04,1.3,0,2.6,0.1,3.9c-0.69-0.06-2.24-0.03-3.05,0
		c0.02-0.37,0.05-0.73,0.07-1.1c0-0.11,0.02-0.22,0.02-0.33v-8.85c0-0.47-0.09-1.49-0.09-1.54h5.44c0.59,0,1.18,0.08,1.74,0.27
		c1.18,0.32,2.07,1.29,2.3,2.49c0.23,0.96,0.15,1.96-0.21,2.87c-0.4,0.97-1.21,1.7-2.21,2c-0.56,0.18-1.15,0.28-1.74,0.27h-2.36
		L-5617.56-6843.8z M-5617.54-6846.23c0.05,0,1.65,0,2.42-0.05c0.55-0.02,1.03-0.4,1.17-0.94c0.11-0.35,0.12-0.73,0.03-1.09
		c-0.08-0.4-0.38-0.72-0.76-0.84c-0.19-0.07-0.4-0.11-0.6-0.12c-0.69-0.02-2.18-0.02-2.25,0L-5617.54-6846.23L-5617.54-6846.23z"/>
	<path id="Path_7883" class="st7" d="M-5665.18-6851.76h0.39c0.94,0,1.9,0,2.85,0.02h3.62c0.53,0,1.65-0.07,1.68-0.06
		c-0.02,0.31,0,2.35,0,2.69c-1.84-0.16-3.7-0.07-5.55-0.1v2.34c1.62,0,3.25,0.02,4.87-0.09c-0.05,0.87-0.05,1.75,0,2.62
		c-1.62-0.14-3.25-0.09-4.92-0.1c0.03,1.53-0.06,3.03,0.09,4.53c-1.01-0.08-2.02-0.08-3.03,0c0.02-0.26,0.1-0.93,0.1-1.52v-8.91
		c0.01-0.48-0.02-0.97-0.09-1.44L-5665.18-6851.76z"/>
	<path id="Path_7884" class="st7" d="M-5655.44-6839.81c0.09-1.02,0.13-2.03,0.11-3.05v-5.85c0-0.85-0.05-2.54-0.12-2.97
		c0.76,0.04,2.69,0.02,3.12-0.02c0,0.13-0.08,1.18-0.08,1.6v7.7h4.33c0.48,0,0.95-0.04,1.46-0.06c-0.05,0.9-0.04,1.8,0.02,2.7
		c-0.08,0-0.94-0.05-1.34-0.05c-1.87-0.02-3.73-0.03-5.59-0.03c-0.48,0-1.74,0.04-1.89,0.04L-5655.44-6839.81z"/>
	<path id="Path_7885" class="st7" d="M-5603.48-6834.53v-2.81c0-0.31,0.04-0.35,0.34-0.34c0.9,0,1.8-0.04,2.69,0.03
		c1.41,0.1,2.56,1.15,2.79,2.54c0.15,0.77,0,1.57-0.4,2.24c-0.46,0.76-1.23,1.27-2.11,1.39c-0.26,0.04-0.52,0.06-0.79,0.06h-2.15
		c-0.31,0-0.35-0.05-0.35-0.36v-2.77L-5603.48-6834.53z M-5602.85-6831.99c0.06,0.01,0.13,0.02,0.19,0.02h1.92
		c0.18,0,0.36-0.03,0.53-0.07c1.1-0.2,1.92-1.13,1.99-2.24c0.16-1.39-0.83-2.65-2.22-2.81c-0.1-0.01-0.2-0.02-0.3-0.02h-1.9
		c-0.07,0-0.15,0-0.22,0.02C-5602.92-6836.86-5602.92-6832.23-5602.85-6831.99L-5602.85-6831.99z"/>
	<path id="Path_7886" class="st7" d="M-5591.42-6837.79c1.76-0.05,3.23,1.33,3.28,3.09c0,0.05,0,0.1,0,0.15
		c0.01,1.8-1.44,3.27-3.24,3.28c-1.8,0.01-3.27-1.44-3.28-3.24C-5594.68-6836.31-5593.23-6837.78-5591.42-6837.79
		C-5591.42-6837.79-5591.42-6837.79-5591.42-6837.79z M-5591.42-6831.85c1.48,0.01,2.69-1.19,2.7-2.68c0.01-1.48-1.19-2.69-2.68-2.7
		c-1.48-0.01-2.69,1.19-2.7,2.68C-5594.11-6833.07-5592.91-6831.86-5591.42-6831.85L-5591.42-6831.85z"/>
	<path id="Path_7887" class="st7" d="M-5655.44-6833.91l0.54,0.88c0.27,0.44,0.54,0.87,0.81,1.31c0.12,0.21,0.06,0.31-0.18,0.34
		c-0.19,0.03-0.37-0.07-0.45-0.24c-0.39-0.67-0.81-1.33-1.21-2c-0.05-0.12-0.18-0.2-0.31-0.19h-1.36c0,0.11-0.02,0.2-0.02,0.28v1.82
		c0,0.25-0.1,0.34-0.35,0.31c-0.06,0-0.12-0.02-0.16-0.07c-0.04-0.04-0.07-0.1-0.07-0.16c0-0.06,0-0.12,0-0.18c0-1.81,0-3.63,0-5.44
		v-0.15c0-0.21,0.06-0.27,0.26-0.27c0.65,0,1.3-0.02,1.95,0.02c0.67,0.02,1.28,0.38,1.61,0.96c0.52,0.9,0.21,2.06-0.69,2.57
		c-0.06,0.03-0.11,0.06-0.17,0.09c-0.06,0.03-0.12,0.07-0.17,0.11L-5655.44-6833.91z M-5657.62-6837.09v2.72
		c0.05,0.01,0.09,0.02,0.14,0.03h1.25c0.16-0.01,0.32-0.03,0.48-0.08c0.63-0.13,1.05-0.72,0.98-1.36c0.02-0.63-0.45-1.17-1.07-1.25
		c-0.59-0.08-1.19-0.1-1.79-0.07H-5657.62z"/>
	<path id="Path_7888" class="st7" d="M-5616.31-6835.92c-0.21,0.06-0.31,0.02-0.35-0.2c-0.06-0.23-0.17-0.45-0.33-0.62
		c-0.26-0.28-0.6-0.45-0.98-0.49c-0.43-0.07-0.86,0-1.25,0.2c-0.3,0.13-0.52,0.41-0.58,0.74c-0.07,0.3,0.06,0.61,0.31,0.79
		c0.31,0.2,0.65,0.35,1.01,0.43c0.41,0.12,0.82,0.23,1.23,0.37c0.28,0.1,0.55,0.25,0.77,0.45c0.66,0.62,0.69,1.67,0.07,2.33
		c-0.05,0.05-0.09,0.09-0.15,0.14c-0.34,0.27-0.76,0.45-1.19,0.5c-0.43,0.06-0.87,0.03-1.29-0.08c-0.78-0.21-1.36-0.88-1.46-1.68
		c-0.02-0.13,0.03-0.2,0.15-0.22l0.15-0.04c0.11-0.04,0.23,0.02,0.27,0.13c0.01,0.02,0.01,0.03,0.01,0.05
		c0.02,0.08,0.02,0.15,0.04,0.23c0.13,0.48,0.5,0.86,0.98,0.99c0.62,0.22,1.31,0.13,1.86-0.23c0.42-0.28,0.61-0.8,0.45-1.28
		c-0.08-0.25-0.26-0.46-0.49-0.57c-0.32-0.15-0.64-0.27-0.98-0.38c-0.4-0.13-0.8-0.23-1.2-0.36c-0.14-0.05-0.28-0.12-0.42-0.2
		c-0.67-0.38-0.91-1.23-0.53-1.91c0.06-0.11,0.13-0.21,0.22-0.29c0.28-0.29,0.64-0.49,1.04-0.57c0.46-0.12,0.94-0.12,1.39,0
		c0.77,0.16,1.37,0.78,1.5,1.56c0.03,0.14-0.16,0.2-0.23,0.22L-5616.31-6835.92z"/>
	<path id="Path_7889" class="st7" d="M-5652.06-6837.1v2.01c0.11,0,0.2,0.02,0.31,0.02h2.13c0.06,0,0.12,0,0.18,0
		c0.16,0.02,0.23,0.11,0.23,0.28c0,0.18-0.05,0.26-0.24,0.26h-2.55c-0.08,0.84-0.08,1.69-0.02,2.53h3.27c0.2,0,0.26,0.07,0.26,0.27
		c0,0.2-0.07,0.29-0.26,0.31h-3.56c-0.29,0-0.35-0.05-0.35-0.34v-5.59c0-0.29,0.04-0.33,0.31-0.33h3.46c0.26,0,0.31,0.07,0.31,0.31
		c0,0.19-0.08,0.25-0.31,0.25h-3.17L-5652.06-6837.1z"/>
	<path id="Path_7890" class="st7" d="M-5659.68-6833.37c0.11,0.03,0.2,0.05,0.29,0.08c0.19,0.06,0.23,0.17,0.14,0.35
		c-0.28,0.53-0.72,0.96-1.25,1.25c-1.32,0.72-2.96,0.48-4.01-0.6c-0.53-0.56-0.84-1.3-0.86-2.07c-0.05-0.71,0.14-1.41,0.53-2
		c0.47-0.72,1.21-1.21,2.05-1.36c0.86-0.18,1.76-0.01,2.49,0.47c0.38,0.24,0.7,0.56,0.94,0.94c0.12,0.19,0.08,0.29-0.13,0.35
		c-0.03,0.01-0.07,0.02-0.1,0.03c-0.14,0.07-0.22,0-0.29-0.11c-0.15-0.26-0.36-0.49-0.6-0.66c-0.62-0.46-1.4-0.64-2.16-0.49
		c-0.84,0.13-1.56,0.69-1.9,1.47c-0.22,0.49-0.29,1.03-0.22,1.56c0.06,0.61,0.34,1.18,0.78,1.6c0.43,0.41,0.99,0.66,1.58,0.7
		c0.65,0.07,1.31-0.1,1.84-0.48c0.29-0.21,0.54-0.48,0.72-0.79L-5659.68-6833.37L-5659.68-6833.37z"/>
	<path id="Path_7891" class="st7" d="M-5642.4-6831.41l-0.6-1.33c-0.06-0.13-0.12-0.27-0.18-0.4c-0.05-0.1-0.16-0.16-0.28-0.14
		h-2.75c-0.13-0.01-0.25,0.07-0.29,0.2c-0.21,0.49-0.44,0.98-0.66,1.48c-0.03,0.1-0.11,0.17-0.2,0.21c-0.09,0.04-0.2,0.04-0.29,0
		c-0.1-0.03-0.15-0.12-0.13-0.22c0.02-0.06,0.04-0.11,0.06-0.17l2.15-4.76c0.14-0.31,0.28-0.6,0.41-0.91
		c0.04-0.13,0.17-0.22,0.31-0.2c0.14-0.02,0.28,0.06,0.34,0.19c0.49,1.1,0.98,2.18,1.48,3.3l1.08,2.41
		c0.02,0.03,0.03,0.06,0.04,0.09c0.02,0.06,0.01,0.12-0.02,0.17c-0.03,0.05-0.09,0.08-0.15,0.08L-5642.4-6831.41z M-5646.12-6833.91
		c0.86,0.06,1.73,0.06,2.59,0l-1.28-2.85h-0.06l-1.27,2.87L-5646.12-6833.91z"/>
	<path id="Path_7892" class="st7" d="M-5627.33-6837.1v2.02c0.1,0,0.19,0.02,0.28,0.02h2.15c0.07-0.01,0.14-0.01,0.21,0
		c0.14,0.03,0.21,0.13,0.19,0.31c-0.01,0.18-0.06,0.22-0.21,0.23h-2.58c-0.08,0.85-0.08,1.7,0,2.54h3.25c0.21,0,0.27,0.08,0.27,0.28
		s-0.07,0.28-0.28,0.28h-3.59c-0.21,0-0.27-0.07-0.28-0.28s0-0.46,0-0.69v-4.97c0-0.27,0.04-0.31,0.31-0.31h3.46
		c0.27,0,0.34,0.08,0.31,0.37c0,0.11-0.09,0.2-0.2,0.2c-0.07,0-0.14,0-0.21,0L-5627.33-6837.1L-5627.33-6837.1z"/>
	<path id="Path_7893" class="st7" d="M-5604.94-6835.41c0,0.62,0.02,1.27,0,1.9c-0.01,0.54-0.2,1.05-0.54,1.46
		c-0.32,0.37-0.76,0.62-1.25,0.7c-0.52,0.11-1.05,0.09-1.56-0.04c-0.79-0.18-1.39-0.82-1.53-1.62c-0.07-0.31-0.1-0.62-0.1-0.94
		v-3.41c-0.03-0.16,0.08-0.31,0.24-0.33c0.07-0.01,0.15,0,0.21,0.04c0.06,0.04,0.11,0.1,0.12,0.18c0.01,0.07,0.01,0.13,0,0.2v3.39
		c0,0.27,0.03,0.55,0.1,0.81c0.14,0.65,0.69,1.13,1.36,1.19c0.42,0.07,0.84,0.05,1.25-0.07c0.59-0.17,1.03-0.69,1.09-1.3
		c0.05-0.29,0.07-0.59,0.07-0.89v-3.18c-0.01-0.08,0-0.15,0.02-0.23c0.06-0.15,0.21-0.11,0.34-0.11c0.1-0.02,0.19,0.05,0.21,0.15
		c0,0.01,0,0.02,0,0.02c0,0.07,0,0.14,0,0.21v1.87L-5604.94-6835.41z"/>
	<path id="Path_7894" class="st7" d="M-5632.07-6831.41c-0.09-0.19-0.18-0.38-0.27-0.58l-2.36-5.26c-0.03-0.05-0.05-0.11-0.07-0.16
		c-0.04-0.09,0.01-0.2,0.1-0.24c0,0,0.01,0,0.01,0c0.19-0.08,0.41,0.01,0.49,0.2c0,0.01,0.01,0.01,0.01,0.02l1.92,4.28l0.38,0.87
		c0.04-0.04,0.07-0.09,0.1-0.14l2.18-4.94l0.04-0.09c0.09-0.2,0.33-0.28,0.52-0.18c0.09,0.03,0.14,0.13,0.11,0.22
		c0,0.01,0,0.01-0.01,0.02c-0.04,0.1-0.08,0.19-0.12,0.28c-0.81,1.81-1.63,3.63-2.45,5.44c-0.14,0.31-0.06,0.3-0.47,0.29
		C-5631.99-6831.4-5632.03-6831.4-5632.07-6831.41z"/>
	<path id="Path_7895" class="st7" d="M-5613.53-6837.1h-1.84c-0.2,0-0.26-0.06-0.27-0.26c-0.01-0.19,0.05-0.31,0.29-0.31h4.18
		c0.34,0,0.33,0.16,0.31,0.42c0,0.11-0.1,0.15-0.21,0.15h-1.87v5.37c0.03,0.35-0.2,0.36-0.43,0.31c-0.06,0-0.13-0.1-0.16-0.17
		c-0.01-0.08-0.01-0.15,0-0.23v-5.29L-5613.53-6837.1z"/>
	<path id="Path_7896" class="st7" d="M-5640.12-6837.08h-1.81c-0.24,0-0.31-0.07-0.29-0.31c0.02-0.24,0.06-0.25,0.24-0.25h4.23
		c0.28,0,0.38,0.15,0.31,0.42c-0.03,0.1-0.12,0.16-0.22,0.15h-1.86c0,0.12-0.02,0.21-0.02,0.31v5.05c0,0.29-0.15,0.4-0.43,0.31
		c-0.09-0.03-0.15-0.11-0.15-0.2c0-0.07,0-0.14,0-0.21V-6837.08z"/>
	<path id="Path_7897" class="st7" d="M-5635.76-6834.53v2.9c-0.02,0.19-0.1,0.26-0.31,0.25s-0.26-0.08-0.27-0.26v-5.71
		c-0.01-0.17,0.12-0.31,0.28-0.31c0.13-0.01,0.25,0.07,0.3,0.19c0.01,0.07,0.01,0.13,0,0.2
		C-5635.76-6836.36-5635.76-6835.44-5635.76-6834.53z"/>
	<path id="Path_7898" class="st7" d="M-5595.84-6834.53v2.89c0,0.18-0.09,0.25-0.29,0.25c-0.2,0-0.27-0.06-0.29-0.24v-5.72
		c-0.03-0.16,0.08-0.32,0.25-0.34c0.07-0.01,0.13,0,0.19,0.03c0.06,0.04,0.11,0.1,0.13,0.17c0.03,0.06,0,2.03,0,2.94
		L-5595.84-6834.53z"/>
	<g class="st9">
		<path class="st10" d="M-5723.86-6848.15l-2.84,8.4h-0.86l-2.36-7.35l-2.39,7.35h-0.85l-2.83-8.4h0.9l2.39,7.52l2.37-7.52h0.84
			l2.39,7.52l2.37-7.52H-5723.86z"/>
		<path class="st10" d="M-5717.79-6842.63h-5.24c0.12,1.36,1.08,2.24,2.37,2.24c0.8,0,1.51-0.3,2-0.83l0.46,0.46
			c-0.6,0.65-1.48,1.03-2.51,1.03c-1.83,0-3.13-1.31-3.13-3.17c0-1.86,1.31-3.17,3.11-3.17
			C-5718.74-6846.06-5717.7-6844.68-5717.79-6842.63z M-5718.51-6843.25c-0.07-1.29-0.91-2.15-2.21-2.15
			c-1.26,0-2.18,0.85-2.31,2.15H-5718.51z"/>
		<path class="st10" d="M-5709.71-6842.88c0,1.85-1.24,3.15-3.01,3.15c-1.16,0-2.05-0.55-2.52-1.48v1.45h-0.8v-8.9h0.8v4.07
			c0.47-0.92,1.37-1.48,2.51-1.48C-5710.96-6846.06-5709.71-6844.75-5709.71-6842.88z M-5710.53-6842.91c0-1.43-0.98-2.47-2.35-2.47
			c-1.38,0-2.36,1.04-2.36,2.47c0,1.45,0.98,2.48,2.36,2.48C-5711.51-6840.42-5710.53-6841.46-5710.53-6842.91z"/>
		<path class="st10" d="M-5706.43-6845.4c-0.76,0-1.33,0.28-1.33,0.93c0,1.51,3.56,0.74,3.55,3c0,1.2-1.08,1.74-2.27,1.74
			c-0.9,0-1.8-0.31-2.39-0.88l0.32-0.58c0.54,0.5,1.34,0.8,2.1,0.8c0.78,0,1.43-0.31,1.44-1.01c0.04-1.62-3.54-0.83-3.54-3.02
			c0-1.16,1.02-1.67,2.16-1.67c0.73,0,1.43,0.22,1.94,0.54l-0.31,0.61C-5705.23-6845.22-5705.85-6845.4-5706.43-6845.4z"/>
		<path class="st10" d="M-5701.67-6847.85c0,0.32-0.24,0.58-0.55,0.58c-0.31,0-0.56-0.25-0.56-0.58c0-0.32,0.25-0.56,0.56-0.56
			C-5701.91-6848.41-5701.67-6848.17-5701.67-6847.85z M-5701.81-6846.04v6.28h-0.8v-6.28H-5701.81z"/>
		<path class="st10" d="M-5696.31-6840.18c-0.43,0.3-0.9,0.46-1.39,0.47c-0.91,0-1.56-0.55-1.56-1.78v-3.74h-0.9l-0.01-0.62h0.91
			v-1.62h0.8v1.62l2.04-0.01v0.63h-2.04v3.61c0,0.82,0.31,1.18,0.89,1.16c0.34,0,0.67-0.12,1.02-0.33L-5696.31-6840.18z"/>
		<path class="st10" d="M-5689.56-6842.63h-5.24c0.12,1.36,1.08,2.24,2.37,2.24c0.8,0,1.51-0.3,2-0.83l0.46,0.46
			c-0.6,0.65-1.48,1.03-2.51,1.03c-1.83,0-3.13-1.31-3.13-3.17c0-1.86,1.31-3.17,3.11-3.17
			C-5690.51-6846.06-5689.48-6844.68-5689.56-6842.63z M-5690.28-6843.25c-0.07-1.29-0.91-2.15-2.21-2.15
			c-1.26,0-2.18,0.85-2.31,2.15H-5690.28z"/>
		<path class="st10" d="M-5677.89-6842.88c0,1.85-1.24,3.15-3.01,3.15c-1.16,0-2.05-0.55-2.52-1.48v1.45h-0.8v-8.9h0.8v4.07
			c0.47-0.92,1.37-1.48,2.51-1.48C-5679.14-6846.06-5677.89-6844.75-5677.89-6842.88z M-5678.7-6842.91c0-1.43-0.98-2.47-2.35-2.47
			c-1.38,0-2.36,1.04-2.36,2.47c0,1.45,0.98,2.48,2.36,2.48C-5679.69-6840.42-5678.7-6841.46-5678.7-6842.91z"/>
		<path class="st10" d="M-5676.36-6837.39c-0.5,0-0.92-0.14-1.3-0.43l0.36-0.62c0.28,0.19,0.58,0.29,0.9,0.29
			c0.52,0,0.94-0.33,1.21-0.98l0.26-0.65l-2.6-6.25h0.85l2.16,5.4l2.07-5.4h0.83l-2.9,7.18
			C-5674.9-6837.89-5675.55-6837.39-5676.36-6837.39z"/>
	</g>
</g>
</svg>
