<?xml version="1.0" encoding="utf-8"?>
<!-- Generator: Adobe Illustrator 24.1.0, SVG Export Plug-In . SVG Version: 6.00 Build 0)  -->
<svg version="1.1" id="Layer_1" xmlns="http://www.w3.org/2000/svg" xmlns:xlink="http://www.w3.org/1999/xlink" x="0px" y="0px"
	 viewBox="0 0 117.08 117.08" style="enable-background:new 0 0 117.08 117.08;" xml:space="preserve">
<style type="text/css">
	.st0{fill:#436AB2;}
	.st1{fill:none;}
	.st2{fill:none;stroke:#7AC25B;}
	.st3{fill:#7AC25B;}
	.st4{fill:#11B37D;}
	.st5{fill:#B1D235;}
	.st6{fill:#139346;}
	.st7{fill:#F6F6F6;}
	.st8{fill:#8F54A1;}
	.st9{enable-background:new    ;}
	.st10{fill:#CBCBCA;}
	.st11{fill:#FFFFFF;}
	.st12{fill:#CC5641;}
	.st13{fill:#4D4D4E;}
	.st14{fill:#F59595;}
	.st15{fill:#EE6161;}
	.st16{fill:#F8B1B1;}
	.st17{fill:#F37C7C;}
	.st18{fill:none;stroke:#FFFFFF;stroke-width:4;}
	.st19{fill:none;stroke:#FFFFFF;stroke-width:3;}
</style>
<g>
	<rect id="Rectangle_198" x="1.89" y="27.19" class="st12" width="79" height="39"/>
	<path id="Path_7507" class="st13" d="M19.51,0v24.39H0V68.3h19.51v48.78h68.3l29.27-29.27V0H19.51z M4.88,29.27h73.18v34.15H4.88
		V29.27z M87.81,110.18V87.81h22.37L87.81,110.18z M112.2,82.93H82.93v29.27H24.39V68.3h58.54V24.4H24.39V4.88h87.81V82.93z"/>
	<g id="Group_922" transform="translate(14.879 35.929)">
		<path id="Path_7508" class="st11" d="M7.38,0.01c0.93-0.03,1.86,0.16,2.71,0.54c0.69,0.33,1.3,0.81,1.77,1.42
			c0.45,0.6,0.78,1.28,0.97,2c0.19,0.75,0.29,1.52,0.29,2.3c0.02,0.96-0.14,1.91-0.48,2.81c-0.29,0.75-0.75,1.42-1.35,1.96
			c-0.61,0.53-1.32,0.92-2.09,1.14c-0.88,0.26-1.8,0.39-2.72,0.38H4.21v8.34H0V0.01L7.38,0.01z M6.09,9.47
			C6.84,9.5,7.58,9.22,8.12,8.7C8.69,8.05,8.97,7.19,8.9,6.33c0.06-0.85-0.18-1.7-0.67-2.4c-0.59-0.6-1.42-0.9-2.25-0.82H4.21v6.36
			L6.09,9.47z"/>
		<path id="Path_7509" class="st11" d="M25.23,0c1.22-0.05,2.44,0.2,3.55,0.72c0.88,0.46,1.61,1.17,2.09,2.05
			c0.54,1,0.88,2.08,1.01,3.21c0.18,1.39,0.27,2.78,0.26,4.18c0.02,1.6-0.09,3.2-0.33,4.79c-0.16,1.18-0.56,2.32-1.16,3.35
			c-0.52,0.86-1.29,1.54-2.2,1.96c-1.1,0.47-2.29,0.68-3.48,0.64h-6.64V0L25.23,0z M24.41,17.81c0.62,0.03,1.23-0.1,1.79-0.38
			c0.48-0.29,0.86-0.73,1.07-1.26c0.3-0.74,0.48-1.52,0.53-2.32c0.09-0.95,0.13-2.14,0.13-3.57c0-1.19-0.04-2.23-0.12-3.14
			c-0.05-0.77-0.21-1.52-0.48-2.24c-0.21-0.55-0.59-1.02-1.09-1.34c-0.58-0.33-1.25-0.49-1.92-0.46h-1.78v14.7H24.41z"/>
		<path id="Path_7510" class="st11" d="M49.52,0.01v3.45h-7.46v4.92h7.02v3.45h-7.02v9.07h-4.21V0L49.52,0.01z"/>
	</g>
</g>
</svg>
