<?xml version="1.0" encoding="utf-8"?>
<!-- Generator: Adobe Illustrator 24.1.0, SVG Export Plug-In . SVG Version: 6.00 Build 0)  -->
<svg version="1.1" id="Layer_1" xmlns="http://www.w3.org/2000/svg" xmlns:xlink="http://www.w3.org/1999/xlink" x="0px" y="0px"
	 viewBox="0 0 104.31 109.57" style="enable-background:new 0 0 104.31 109.57;" xml:space="preserve">
<style type="text/css">
	.st0{fill:#436AB2;}
	.st1{fill:none;}
	.st2{fill:none;stroke:#7AC25B;}
	.st3{fill:#7AC25B;}
	.st4{fill:#11B37D;}
	.st5{fill:#B1D235;}
	.st6{fill:#139346;}
	.st7{fill:#F6F6F6;}
	.st8{fill:#8F54A1;}
	.st9{enable-background:new    ;}
	.st10{fill:#CBCBCA;}
	.st11{fill:#FFFFFF;}
	.st12{fill:#CC5641;}
	.st13{fill:#4D4D4E;}
	.st14{fill:#F59595;}
	.st15{fill:#EE6161;}
	.st16{fill:#F8B1B1;}
	.st17{fill:#F37C7C;}
	.st18{fill:none;stroke:#FFFFFF;stroke-width:4;}
	.st19{fill:none;stroke:#FFFFFF;stroke-width:3;}
</style>
<g id="food-donation" transform="translate(-12.283)">
	<g id="Group_733" transform="translate(12.283 0)">
		<g id="Group_732">
			<path id="Path_7344" class="st3" d="M29.5,29.79c1.16-0.25,1.89-1.38,1.65-2.54s-1.38-1.89-2.54-1.65l0,0l-6,1.27
				c-1.16,0.25-1.89,1.38-1.65,2.54c0.25,1.16,1.38,1.89,2.54,1.65L29.5,29.79z"/>
			<path id="Path_7345" class="st3" d="M30.87,36.16l-6,1.27c-1.16,0.25-1.89,1.38-1.65,2.54c0.25,1.16,1.38,1.89,2.54,1.65l6-1.27
				c1.16-0.25,1.89-1.38,1.65-2.54C33.16,36.65,32.03,35.92,30.87,36.16L30.87,36.16z"/>
			<path id="Path_7346" class="st3" d="M104.14,67.78l-8.14-19.04l-0.02-0.04c-0.15-0.41-0.44-0.74-0.81-0.96L95,47.65V36.56
				c-0.01-4.8-1.19-9.53-3.45-13.76l-4.5-8.41c0.76-0.35,1.25-1.11,1.25-1.94V2.14c0-1.18-0.96-2.14-2.14-2.14H69.63
				c-1.18,0-2.14,0.96-2.14,2.14v10.3c0,0.84,0.49,1.6,1.25,1.94l-4.5,8.41c-0.33,0.62-0.64,1.26-0.93,1.9
				c-2.15-0.95-4.47-1.43-6.82-1.41c-5.66,0-11.03,2.52-14.64,6.89L39.1,17.31C37.35,9.2,29.37,4.04,21.26,5.75l-0.03,0.01
				c-8.12,1.72-13.31,9.69-11.59,17.8c0,0.01,0,0.02,0.01,0.03l5.1,23.82H10.3c-0.87,0-1.65,0.53-1.98,1.33l0,0L0.17,67.78
				c-0.35,0.83-0.15,1.79,0.51,2.41c0.42,0.38,0.96,0.58,1.52,0.57h5.96v33c0,1.11,0.85,2.04,1.95,2.13l41.86,3.66l0.19,0.01
				l0.19-0.01l41.86-3.66c1.11-0.1,1.95-1.02,1.95-2.13v-33h5.96c0.56,0.01,1.11-0.2,1.52-0.57
				C104.29,69.58,104.49,68.61,104.14,67.78L104.14,67.78z M71.77,4.28h12.24v6.02H71.77V4.28z M73.49,14.58h8.81l5.47,10.23
				c1.93,3.62,2.94,7.65,2.94,11.75v10.85H65.07V36.56c0-4.1,1.01-8.13,2.94-11.75L73.49,14.58z M56.5,27.56
				c1.85-0.01,3.69,0.39,5.37,1.17c-0.71,2.55-1.07,5.18-1.07,7.83v10.85H42.75c-0.64-1.66-0.96-3.43-0.96-5.21
				C41.82,34.1,48.4,27.55,56.5,27.56z M13.83,22.7c-1.24-5.8,2.46-11.51,8.26-12.75c0.01,0,0.01,0,0.02,0l0.03-0.01
				c5.81-1.23,11.52,2.46,12.77,8.27l3.75,17.49c-1.38,3.76-1.53,7.86-0.43,11.71H19.12L13.83,22.7z M11.71,51.69h37.21l-6.33,14.79
				H5.38L11.71,51.69z M12.44,70.76H44c0.86,0,1.63-0.51,1.97-1.3L50.02,60v45.1l-37.58-3.29V70.76z M90.09,66.49
				c-1.18,0-2.14,0.96-2.14,2.14s0.96,2.14,2.14,2.14c0,0,0,0,0,0h1.78v31.04l-37.58,3.29V60l4.05,9.47c0.34,0.79,1.11,1.3,1.97,1.3
				h10.43c1.18,0,2.14-0.96,2.14-2.14c0-1.18-0.96-2.14-2.14-2.14h-9.02l-6.33-14.8h37.2l6.33,14.79H90.09L90.09,66.49z"/>
			<path id="Path_7347" class="st3" d="M81.65,66.85c-0.98-0.66-2.31-0.39-2.97,0.59c-0.66,0.98-0.39,2.31,0.59,2.97
				s2.31,0.39,2.97-0.59c0.08-0.12,0.14-0.24,0.2-0.37C82.82,68.5,82.49,67.42,81.65,66.85z"/>
		</g>
	</g>
</g>
</svg>
