<?xml version="1.0" encoding="utf-8"?>
<!-- Generator: Adobe Illustrator 24.1.0, SVG Export Plug-In . SVG Version: 6.00 Build 0)  -->
<svg version="1.1" id="Layer_1" xmlns="http://www.w3.org/2000/svg" xmlns:xlink="http://www.w3.org/1999/xlink" x="0px" y="0px"
	 viewBox="0 0 99.11 92.92" style="enable-background:new 0 0 99.11 92.92;" xml:space="preserve">
<style type="text/css">
	.st0{fill:#436AB2;}
	.st1{fill:none;}
	.st2{fill:none;stroke:#7AC25B;}
	.st3{fill:#7AC25B;}
	.st4{fill:#11B37D;}
	.st5{fill:#B1D235;}
	.st6{fill:#139346;}
	.st7{fill:#F6F6F6;}
	.st8{fill:#8F54A1;}
	.st9{enable-background:new    ;}
	.st10{fill:#CBCBCA;}
	.st11{fill:#FFFFFF;}
	.st12{fill:#CC5641;}
	.st13{fill:#4D4D4E;}
	.st14{fill:#F59595;}
	.st15{fill:#EE6161;}
	.st16{fill:#F8B1B1;}
	.st17{fill:#F37C7C;}
	.st18{fill:none;stroke:#FFFFFF;stroke-width:4;}
	.st19{fill:none;stroke:#FFFFFF;stroke-width:3;}
</style>
<g id="people" transform="translate(0 -16)">
	<path id="Path_7348" class="st3" d="M61.17,27.61c0-6.41-5.2-11.61-11.62-11.61c-6.41,0-11.61,5.2-11.61,11.61
		s5.2,11.61,11.61,11.61C55.97,39.22,61.16,34.03,61.17,27.61z M49.56,35.36c-4.28,0-7.74-3.47-7.74-7.74
		c0-4.28,3.47-7.74,7.74-7.74c4.28,0,7.74,3.47,7.74,7.74c0,0,0,0,0,0C57.29,31.89,53.83,35.35,49.56,35.36L49.56,35.36z"/>
	<path id="Path_7349" class="st3" d="M66.98,64.39v-7.74c-0.01-9.62-7.81-17.42-17.43-17.41c-9.61,0.01-17.4,7.8-17.41,17.41v7.74
		c0,1.07,0.87,1.94,1.94,1.94c0,0,0,0,0,0h30.97C66.11,66.33,66.98,65.46,66.98,64.39z M63.11,62.46H36v-5.81
		c-0.09-7.48,5.9-13.62,13.39-13.71c7.48-0.09,13.62,5.9,13.71,13.39c0,0.11,0,0.22,0,0.33V62.46z"/>
	<path id="Path_7350" class="st3" d="M13.91,91.9l9.32,4.66v10.42c0,1.07,0.87,1.94,1.94,1.94c0,0,0,0,0,0h20.52
		c1.07,0,1.94-0.87,1.94-1.94l0,0V82.36c0-6.15-4.54-11.46-10.33-12.08c-0.15-0.03-7.48-0.57-11.02-4.12l-5.3-5.3
		c-1.45-1.46-3.42-2.27-5.48-2.27V43.1c0-4.28-3.47-7.74-7.74-7.74S0,38.82,0,43.1v26.3C0,78.93,5.39,87.65,13.91,91.9L13.91,91.9z
		 M3.87,43.1c0.03-2.14,1.8-3.84,3.93-3.81c2.09,0.03,3.78,1.72,3.81,3.81v16.52c-3.7,2.14-4.97,6.87-2.83,10.57
		c0.34,0.59,0.75,1.13,1.23,1.61l9.91,9.91c0.77,0.74,1.99,0.72,2.74-0.05c0.72-0.75,0.72-1.94,0-2.69l-9.91-9.91
		c-1.51-1.51-1.51-3.96,0-5.47c0.41-0.41,0.9-0.72,1.45-0.91l0,0c1.41-0.5,2.97-0.14,4.03,0.91l5.3,5.3
		c3.61,3.61,8.87,4.62,13.32,5.22h0.02c3.86,0.41,6.88,4.03,6.88,8.23v22.69H27.1v-9.68c0-0.73-0.41-1.4-1.07-1.73l-10.39-5.19
		C8.41,84.86,3.84,77.47,3.87,69.4V43.1z"/>
	<circle id="Ellipse_57" class="st3" cx="88.97" cy="87.62" r="2.95"/>
	<path id="Path_7351" class="st3" d="M91.37,35.36c-4.27,0-7.74,3.47-7.74,7.74v15.49c-2.05-0.01-4.03,0.81-5.48,2.27l-5.3,5.3
		c-3.09,3.09-8.1,3.6-11.02,4.12c-5.79,0.62-10.33,5.93-10.33,12.09v24.63c0,1.07,0.87,1.94,1.94,1.94l0,0h20.52
		c1.07,0,1.94-0.87,1.94-1.94c0,0,0,0,0,0V96.56l6.34-3.17c0.94-0.51,1.29-1.68,0.78-2.62c-0.49-0.89-1.58-1.26-2.51-0.84l-7.41,3.7
		c-0.66,0.33-1.07,1-1.07,1.73v9.68H55.36V82.36c0-4.2,3.02-7.82,6.88-8.23h0.02c4.52-0.61,9.72-1.62,13.33-5.22l5.3-5.3
		c1.05-1.06,2.62-1.41,4.03-0.91l0,0c2.02,0.71,3.07,2.93,2.36,4.94c-0.19,0.54-0.5,1.04-0.91,1.45l-9.91,9.91
		c-0.77,0.74-0.79,1.97-0.05,2.74c0.74,0.77,1.97,0.79,2.74,0.05c0.02-0.02,0.03-0.03,0.05-0.05l9.91-9.91
		c3.02-3.02,3.03-7.92,0-10.95c-0.48-0.48-1.02-0.89-1.6-1.23V43.1c0.03-2.14,1.8-3.84,3.93-3.81c2.09,0.03,3.78,1.72,3.81,3.81
		v26.3c0,3.55-0.89,7.05-2.58,10.17c-0.54,0.92-0.23,2.11,0.7,2.65c0.92,0.54,2.11,0.23,2.65-0.7c0.02-0.03,0.04-0.07,0.06-0.1
		c2-3.69,3.05-7.82,3.05-12.02V43.1C99.11,38.83,95.64,35.36,91.37,35.36z"/>
</g>
</svg>
