<?xml version="1.0" encoding="utf-8"?>
<!-- Generator: Adobe Illustrator 24.1.0, SVG Export Plug-In . SVG Version: 6.00 Build 0)  -->
<svg version="1.1" id="Layer_1" xmlns="http://www.w3.org/2000/svg" xmlns:xlink="http://www.w3.org/1999/xlink" x="0px" y="0px"
	 viewBox="0 0 151 151" style="enable-background:new 0 0 151 151;" xml:space="preserve">
<style type="text/css">
	.st0{fill:#436AB2;}
	.st1{fill:none;}
	.st2{fill:none;stroke:#7AC25B;}
	.st3{fill:#7AC25B;}
	.st4{fill:#11B37D;}
	.st5{fill:#B1D235;}
	.st6{fill:#139346;}
	.st7{fill:#F6F6F6;}
	.st8{fill:#8F54A1;}
	.st9{enable-background:new    ;}
	.st10{fill:#CBCBCA;}
	.st11{fill:#FFFFFF;}
	.st12{fill:#CC5641;}
	.st13{fill:#4D4D4E;}
	.st14{fill:#F59595;}
	.st15{fill:#EE6161;}
	.st16{fill:#F8B1B1;}
	.st17{fill:#F37C7C;}
	.st18{fill:none;stroke:#FFFFFF;stroke-width:4;}
	.st19{fill:none;stroke:#FFFFFF;stroke-width:3;}
</style>
<g id="Group_1012" transform="translate(-879 -1402)">
	<circle id="Ellipse_69" class="st3" cx="954.5" cy="1477.5" r="75.5"/>
	<g id="Group_787" transform="translate(861.765 1434.544)">
		<path id="Path_7487" class="st11" d="M118.42,65.36c-2.36-1.38-4.93-2.37-7.6-2.94c3.89-3.59,7.27-7.7,10.03-12.22
			c3.24-5.21,5-11.21,5.09-17.35C125.93,14.71,111.23,0,93.08,0S60.23,14.71,60.23,32.85c0.12,6,1.89,11.85,5.1,16.91
			c2.89,4.67,6.4,8.92,10.44,12.65c-11.18,2.61-13.01,7.78-13.01,10.87c0,2.72,1.7,6.57,9.8,9.52c6.62,2.18,13.55,3.23,20.52,3.11
			c6.97,0.12,13.9-0.94,20.52-3.11c8.1-2.95,9.8-6.8,9.8-9.52C123.41,71.08,122.54,67.93,118.42,65.36z M65.29,32.85
			C65.58,17.5,78.26,5.29,93.61,5.58c14.94,0.28,26.98,12.33,27.27,27.27c0,11.17-7.75,20.61-14.25,26.57
			c-0.98,0.9-1.96,1.75-2.93,2.54l-10.58,7.23l-10.14-7.17C74.82,55.25,65.29,44.77,65.29,32.85z M111.88,78.05
			c-6.06,1.98-12.41,2.93-18.79,2.81c-6.38,0.12-12.73-0.83-18.79-2.81c-4.47-1.63-6.48-3.57-6.48-4.77c0-2.95,4.87-5.46,12.79-6.64
			c3.51,2.87,7.22,5.46,11.12,7.77l1.33,0.94l1.34-0.91c4.07-2.27,7.93-4.88,11.56-7.8c7.78,1.16,12.4,3.62,12.4,6.64
			C118.36,74.47,116.36,76.42,111.88,78.05L111.88,78.05z"/>
		<path id="Path_7488" class="st11" d="M93.08,53.99c11.86,0,21.48-9.62,21.48-21.48c0-11.86-9.62-21.48-21.48-21.48
			c-11.86,0-21.48,9.62-21.48,21.48C71.62,44.37,81.23,53.98,93.08,53.99z M85.71,47.19c0.97-4.07,5.05-6.59,9.12-5.62
			c2.79,0.66,4.96,2.84,5.62,5.62C95.82,49.52,90.35,49.52,85.71,47.19z M89.29,32.51c0-2.09,1.7-3.79,3.79-3.79
			c2.09,0,3.79,1.7,3.79,3.79c0,2.09-1.7,3.79-3.79,3.79l0,0C90.99,36.3,89.3,34.61,89.29,32.51z M93.08,16.09
			c9.07,0,16.42,7.34,16.42,16.41c0,4.34-1.71,8.5-4.77,11.57c-1.01-2.4-2.73-4.43-4.93-5.82c3.17-3.71,2.74-9.3-0.98-12.47
			s-9.3-2.74-12.47,0.98c-2.83,3.31-2.83,8.18,0,11.49c-2.2,1.39-3.92,3.42-4.93,5.82c-6.39-6.43-6.35-16.83,0.08-23.22
			C84.59,17.8,88.75,16.09,93.08,16.09L93.08,16.09z"/>
	</g>
</g>
</svg>
