<?xml version="1.0" encoding="utf-8"?>
<!-- Generator: Adobe Illustrator 24.1.0, SVG Export Plug-In . SVG Version: 6.00 Build 0)  -->
<svg version="1.1" id="Layer_1" xmlns="http://www.w3.org/2000/svg" xmlns:xlink="http://www.w3.org/1999/xlink" x="0px" y="0px"
	 viewBox="0 0 91.23 89.46" style="enable-background:new 0 0 91.23 89.46;" xml:space="preserve">
<style type="text/css">
	.st0{fill:#436AB2;}
	.st1{fill:none;}
	.st2{fill:none;stroke:#7AC25B;}
	.st3{fill:#7AC25B;}
	.st4{fill:#11B37D;}
	.st5{fill:#B1D235;}
	.st6{fill:#139346;}
	.st7{fill:#F6F6F6;}
	.st8{fill:#8F54A1;}
	.st9{enable-background:new    ;}
	.st10{fill:#CBCBCA;}
	.st11{fill:#FFFFFF;}
	.st12{fill:#CC5641;}
	.st13{fill:#4D4D4E;}
	.st14{fill:#F59595;}
	.st15{fill:#EE6161;}
	.st16{fill:#F8B1B1;}
	.st17{fill:#F37C7C;}
	.st18{fill:none;stroke:#FFFFFF;stroke-width:4;}
	.st19{fill:none;stroke:#FFFFFF;stroke-width:3;}
</style>
<g id="Group_1037" transform="translate(-13.151 -0.353)">
	<g id="Group_1036" transform="translate(13.151 0.353)">
		<g id="Group_1034" transform="translate(1.339 1.339)">
			<g id="Group_1033">
				<g id="Group_1031">
					<g id="Group_1030">
						<path id="Path_7542" class="st14" d="M86.31,43.93c1.5,0.3,2.48,1.75,2.19,3.26l-1.1,5.59c-0.3,1.5-1.75,2.48-3.26,2.19
							c-0.04-0.01-0.09-0.02-0.13-0.03c-1.45-0.38-2.35-1.83-2.04-3.3L82,51.49l-7.24,0.33c-0.22,0.01-0.41,0.15-0.48,0.36
							c-0.7,2.12-1.63,4.15-2.76,6.07c-0.12,0.19-0.1,0.44,0.05,0.61l3.2,3.8c1.34-1.27,3.45-1.22,4.72,0.12
							c1.13,1.19,1.23,3.03,0.23,4.34l-0.93,1.21c-1.08,1.44-3.1,1.79-4.6,0.79c-1.23-0.85-1.75-2.41-1.27-3.82l-4.61-2.03
							c-0.21-0.09-0.45-0.04-0.6,0.13c-2.14,2.35-4.63,4.37-7.37,5.97c-0.19,0.11-0.29,0.33-0.25,0.54l1.18,7.2l1.02-0.41
							c1.42-0.57,3.04,0.12,3.61,1.55c0.02,0.04,0.03,0.08,0.05,0.13c0.47,1.43-0.27,2.97-1.67,3.51l-5.22,2.09
							c-1.42,0.57-3.04-0.12-3.61-1.55c-0.02-0.04-0.03-0.08-0.05-0.13c-0.46-1.43,0.27-2.97,1.67-3.51l0.14-0.06L53,72.83
							c-0.13-0.18-0.35-0.26-0.56-0.2c-4.63,1.2-9.47,1.32-14.16,0.37c-0.21-0.04-0.43,0.05-0.55,0.23l-4.21,6.61l0.15,0.05
							c1.75,0.64,2.65,2.58,2.01,4.33c0,0,0,0,0,0c0.14,1.29-0.8,2.45-2.09,2.59c-0.44,0.05-0.89-0.03-1.28-0.23l-5.18-1.89
							c-1.73-0.63-2.64-2.53-2.04-4.27c0.66-1.79,2.64-2.71,4.42-2.05c0,0,0.01,0,0.01,0l0.12,0.04l0.86-7.74
							c0.02-0.22-0.09-0.43-0.28-0.53c-3.26-1.69-6.2-3.94-8.69-6.64c-0.15-0.16-0.38-0.21-0.59-0.13l-6.32,2.59
							c0.72,1.36,0.29,3.04-0.99,3.89c-1.38,0.87-3.21,0.49-4.13-0.86l-1.62-2.33c-0.92-1.3-0.68-3.09,0.55-4.1
							c1.29-1.02,3.16-0.8,4.18,0.49c0.01,0.02,0.03,0.04,0.04,0.05l4.45-5.03c0.15-0.17,0.17-0.41,0.06-0.6
							c-1.86-3.36-3.09-7.03-3.61-10.83c-0.03-0.22-0.19-0.39-0.4-0.44l-7.11-1.64L6.04,45.4c-0.02,1.67-1.37,3.02-3.05,3.02
							C1.34,48.41,0,47.07,0,45.42c0-0.01,0-0.02,0-0.03l0.05-5.17c0.01-1.7,1.39-3.07,3.09-3.07c0,0,0,0,0.01,0
							c1.64,0.04,2.94,1.39,2.93,3.03l7.06-1.65c0.21-0.05,0.37-0.23,0.4-0.44c0.54-4.02,1.86-7.89,3.89-11.4
							c0.11-0.19,0.09-0.43-0.05-0.6l-3.36-3.95l-0.29,0.39c-0.88,1.17-2.54,1.4-3.71,0.51c-0.03-0.03-0.07-0.05-0.1-0.08
							c-1.08-0.94-1.24-2.56-0.37-3.69l2.24-2.96c0.89-1.16,2.55-1.39,3.71-0.5c1.09,0.83,1.36,2.35,0.63,3.51l4.71,2.03
							c0.21,0.09,0.45,0.04,0.6-0.13c2.23-2.45,4.83-4.52,7.71-6.15c0.19-0.11,0.29-0.32,0.26-0.54l-1.08-7.21l-1.03,0.4
							c-1.43,0.55-3.04-0.17-3.59-1.6C23.69,6.09,23.68,6.05,23.67,6c-0.45-1.43,0.3-2.97,1.71-3.49l5.25-2.02
							c1.43-0.55,3.04,0.16,3.59,1.59c0.02,0.04,0.03,0.09,0.05,0.13c0.45,1.43-0.31,2.97-1.71,3.49L32.4,5.76l4.13,5.95
							c0.12,0.18,0.35,0.26,0.56,0.21c2.45-0.6,4.95-0.9,7.47-0.9l0,0c0.22,0,0.42-0.14,0.5-0.35l1.37-3.82
							c-1.61-0.51-2.63-2.09-2.44-3.76c0.27-1.94,2.06-3.31,4.01-3.06l1.88,0.24c1.92,0.23,3.32,1.94,3.14,3.87
							c-0.16,1.45-1.19,2.65-2.6,3.02l0.47,4.15c0.03,0.22,0.19,0.41,0.41,0.45c3.13,0.69,6.13,1.85,8.9,3.46
							c0.19,0.11,0.43,0.09,0.6-0.05l5.66-4.6l-0.86-0.68c-1.2-0.95-1.4-2.7-0.45-3.9c0.03-0.03,0.06-0.07,0.09-0.1
							c1.01-1.11,2.71-1.25,3.87-0.3l4.4,3.49c1.2,0.95,1.4,2.7,0.45,3.9c-0.03,0.03-0.06,0.07-0.09,0.1
							c-1.01,1.11-2.71,1.24-3.87,0.3l-0.12-0.09l-3.03,6.59c-0.09,0.2-0.05,0.43,0.1,0.59c2.15,2.2,3.96,4.7,5.38,7.42
							c0.1,0.2,0.32,0.31,0.54,0.28l4.3-0.6c-0.62-1.74,0.28-3.66,2.02-4.28c0.03-0.01,0.06-0.02,0.09-0.03
							c1.73-0.54,3.58,0.38,4.2,2.09l0.99,2.66c0.64,1.68-0.13,3.57-1.77,4.32c-1.54,0.67-3.33,0.1-4.2-1.33l-3.57,2.42
							c-0.19,0.13-0.27,0.36-0.21,0.58c0.75,2.72,1.13,5.53,1.13,8.35c0,0.48-0.01,0.96-0.03,1.44c-0.01,0.22,0.11,0.42,0.31,0.51
							l6.69,2.92l0.21-1.08c0.3-1.5,1.75-2.48,3.26-2.19L86.31,43.93z"/>
					</g>
				</g>
				<ellipse id="Ellipse_71" class="st15" cx="58.16" cy="26.91" rx="4.42" ry="3.69"/>
				<circle id="Ellipse_72" class="st15" cx="42.21" cy="49.93" r="4.83"/>
				<circle id="Ellipse_73" class="st16" cx="61.03" cy="47.41" r="3.46"/>
				<circle id="Ellipse_74" class="st16" cx="48.26" cy="64.29" r="3.36"/>
				<g id="Group_1032" transform="translate(0 0.308)">
					<path id="Path_7543" class="st17" d="M25.53,40.52c-0.01-11.58,5.41-22.5,14.63-29.5c-1.03,0.15-2.05,0.34-3.07,0.59
						c-0.21,0.05-0.43-0.03-0.56-0.21L32.4,5.44l0.14-0.05c1.41-0.52,2.16-2.06,1.71-3.49c-0.48-1.45-2.05-2.24-3.5-1.76
						c-0.04,0.01-0.09,0.03-0.13,0.05L25.38,2.2c-1.41,0.52-2.16,2.06-1.71,3.49c0.48,1.46,2.05,2.25,3.51,1.77
						c0.04-0.01,0.08-0.03,0.12-0.04l1.03-0.4l1.08,7.21c0.03,0.22-0.07,0.43-0.26,0.54c-2.88,1.63-5.48,3.71-7.71,6.15
						c-0.15,0.17-0.39,0.22-0.6,0.13l-4.71-2.03c0.78-1.24,0.41-2.87-0.82-3.65c-1.16-0.73-2.69-0.46-3.52,0.64l-2.24,2.96
						c-0.87,1.13-0.71,2.75,0.37,3.69c1.12,0.94,2.79,0.79,3.73-0.34c0.03-0.03,0.05-0.07,0.08-0.1l0.29-0.39l3.36,3.96
						c0.14,0.17,0.16,0.41,0.05,0.6c-2.03,3.51-3.35,7.38-3.89,11.4c-0.03,0.22-0.19,0.39-0.4,0.44l-7.06,1.65
						c0.01-1.64-1.29-2.99-2.93-3.03c-1.7-0.01-3.09,1.36-3.1,3.06c0,0,0,0,0,0.01L0,45.09c-0.01,1.65,1.31,3,2.96,3.01
						c0.01,0,0.02,0,0.03,0c1.67,0,3.03-1.35,3.04-3.01l0.01-0.83l7.11,1.64c0.21,0.05,0.37,0.23,0.4,0.44
						c0.53,3.8,1.75,7.47,3.61,10.83c0.11,0.19,0.08,0.44-0.06,0.61l-4.45,5.03c-0.99-1.31-2.85-1.57-4.16-0.58
						c-0.02,0.01-0.04,0.03-0.05,0.04c-1.23,1.01-1.48,2.8-0.55,4.1l1.62,2.33c0.92,1.35,2.74,1.73,4.13,0.86
						c1.29-0.84,1.71-2.53,0.99-3.89l6.32-2.59c0.2-0.08,0.44-0.03,0.59,0.13c2.49,2.7,5.43,4.95,8.69,6.64
						c0.19,0.1,0.31,0.31,0.28,0.53l-0.86,7.74l-0.12-0.04c-1.79-0.66-3.77,0.25-4.43,2.04c0,0,0,0.01,0,0.01
						c-0.6,1.74,0.31,3.64,2.04,4.27l5.19,1.88c1.17,0.57,2.58,0.09,3.15-1.08c0.19-0.4,0.27-0.84,0.23-1.28
						c0.64-1.75-0.26-3.69-2.01-4.33c0,0,0,0-0.01,0l-0.15-0.05l4.21-6.61c0.12-0.18,0.34-0.28,0.55-0.23
						c2.07,0.42,4.17,0.63,6.28,0.63c0.25,0,0.51,0,0.76-0.01C33.15,66.9,25.52,54.27,25.53,40.52L25.53,40.52z"/>
				</g>
				<circle id="Ellipse_75" class="st15" cx="27.22" cy="56.24" r="3.5"/>
			</g>
			
				<ellipse id="Ellipse_76" transform="matrix(0.7852 -0.6192 0.6192 0.7852 -11.6061 27.7358)" class="st15" cx="34.18" cy="30.6" rx="9.22" ry="7.7"/>
		</g>
		<g id="Group_1035">
			<path id="Path_7544" d="M87.9,43.95c-2.02-0.4-4.02,0.76-4.69,2.7l-4.69-2.05c0.01-0.32,0.01-0.64,0.01-0.94
				c0-2.75-0.34-5.48-1.03-8.14l2.1-1.43c1.94,1.71,4.9,1.52,6.61-0.42c1.16-1.32,1.49-3.18,0.84-4.82l-0.99-2.66
				c-0.86-2.39-3.46-3.67-5.88-2.89c-1.92,0.63-3.22,2.42-3.23,4.45l-2.39,0.33c-0.33-0.6-0.68-1.21-1.07-1.81
				c-0.41-0.62-1.24-0.79-1.85-0.39c-0.6,0.4-0.78,1.2-0.41,1.81c0.45,0.71,0.86,1.43,1.23,2.13c0.37,0.7,1.13,1.09,1.91,0.99
				l4.3-0.6c0.73-0.1,1.24-0.78,1.14-1.51c-0.01-0.09-0.03-0.18-0.07-0.27c-0.37-1.04,0.17-2.19,1.21-2.57
				c0.02-0.01,0.04-0.01,0.05-0.02c1.05-0.31,2.16,0.25,2.53,1.28l0.99,2.66c0.39,1.01-0.07,2.16-1.05,2.62
				c-0.92,0.4-1.99,0.06-2.52-0.8c-0.38-0.63-1.21-0.84-1.84-0.45c-0.02,0.01-0.04,0.03-0.06,0.04l-3.57,2.42
				c-0.66,0.45-0.96,1.27-0.75,2.04c0.72,2.6,1.08,5.29,1.08,7.99c0,0.44-0.01,0.91-0.03,1.38c-0.03,0.77,0.41,1.49,1.12,1.8
				l6.69,2.92c0.68,0.3,1.47-0.01,1.76-0.69c0.04-0.09,0.07-0.18,0.09-0.28l0.21-1.08c0.16-0.78,0.93-1.27,1.7-1.11
				c0.76,0.16,1.26,0.9,1.12,1.66l-1.1,5.59c-0.15,0.78-0.91,1.29-1.69,1.13c-0.02,0-0.05-0.01-0.07-0.02
				c-0.75-0.22-1.21-0.98-1.05-1.75l0.03-0.15c0.14-0.73-0.33-1.43-1.05-1.58c-0.11-0.02-0.22-0.03-0.32-0.02l-7.24,0.33
				c-0.77,0.04-1.44,0.55-1.69,1.28c-0.67,2.03-1.56,3.98-2.65,5.81c-0.4,0.68-0.33,1.55,0.18,2.15l3.2,3.8
				c0.48,0.57,1.32,0.64,1.89,0.16c0.02-0.02,0.04-0.04,0.06-0.05c0.79-0.77,2.06-0.76,2.83,0.03c0.7,0.72,0.76,1.85,0.14,2.64
				l-0.93,1.21c-0.65,0.87-1.86,1.09-2.77,0.5c-0.73-0.51-1.05-1.44-0.76-2.29c0.22-0.66-0.09-1.38-0.73-1.65l-4.61-2.03
				c-0.73-0.32-1.59-0.14-2.13,0.45C66,66.07,63.62,68,60.99,69.54c-0.66,0.39-1.02,1.15-0.9,1.91l1.18,7.2
				c0.12,0.73,0.81,1.22,1.54,1.11c0.1-0.02,0.19-0.04,0.28-0.08l1.02-0.41c0.74-0.29,1.57,0.06,1.87,0.8
				c0.01,0.02,0.02,0.04,0.02,0.07c0.23,0.75-0.17,1.55-0.9,1.83l-5.22,2.09c-0.74,0.29-1.57-0.06-1.87-0.8
				c-0.01-0.02-0.02-0.04-0.02-0.07c-0.23-0.75,0.17-1.55,0.9-1.83l0.14-0.06c0.69-0.27,1.02-1.05,0.75-1.74
				c-0.04-0.1-0.09-0.19-0.15-0.28l-4.21-5.9c-0.45-0.63-1.24-0.91-1.99-0.72c-4.43,1.15-9.07,1.27-13.55,0.35
				c-0.76-0.15-1.53,0.18-1.95,0.82l-4.21,6.61c-0.4,0.62-0.21,1.45,0.41,1.85c0.08,0.05,0.17,0.1,0.26,0.13l0.15,0.05
				c1.06,0.39,1.6,1.55,1.22,2.61c0,0,0,0,0,0c-0.05,0.15-0.08,0.3-0.08,0.46c0.12,0.56-0.23,1.12-0.8,1.24
				c-0.27,0.06-0.55,0.01-0.78-0.14l-5.16-1.88c-1.04-0.38-1.58-1.53-1.23-2.58c0.18-0.5,0.55-0.91,1.04-1.14
				c0.52-0.25,1.13-0.28,1.67-0.09l0.12,0.04c0.69,0.25,1.46-0.1,1.72-0.8c0.04-0.1,0.06-0.21,0.07-0.31l0.86-7.74
				c0.08-0.77-0.32-1.51-1-1.86c-3.13-1.61-5.94-3.76-8.32-6.35c-0.53-0.57-1.36-0.76-2.08-0.46l-6.32,2.59
				c-0.68,0.28-1.01,1.06-0.73,1.75c0.02,0.04,0.04,0.08,0.06,0.12c0.4,0.75,0.16,1.68-0.55,2.14c-0.77,0.47-1.78,0.25-2.29-0.5
				l-1.62-2.33c-0.52-0.72-0.4-1.71,0.28-2.28c0.71-0.56,1.74-0.44,2.3,0.27c0.01,0.01,0.02,0.02,0.02,0.03
				c0.45,0.59,1.29,0.71,1.88,0.26c0.07-0.05,0.14-0.11,0.2-0.18l4.45-5.03c0.52-0.59,0.62-1.45,0.23-2.14
				c-0.49-0.88-0.93-1.78-1.32-2.7c-0.29-0.68-1.08-0.99-1.76-0.7s-0.99,1.08-0.7,1.76c0.36,0.83,0.75,1.65,1.17,2.44l-3.19,3.6
				c-1.54-0.94-3.51-0.82-4.93,0.29c-1.79,1.44-2.15,4.03-0.82,5.91l1.62,2.33c1.34,1.94,3.97,2.48,5.96,1.21
				c1.41-0.92,2.15-2.57,1.9-4.23l4.66-1.91c2.38,2.5,5.14,4.61,8.19,6.25l-0.63,5.75c-0.77-0.02-1.54,0.14-2.23,0.47
				c-1.14,0.53-2.01,1.5-2.42,2.68c-0.82,2.43,0.44,5.07,2.85,5.96l5.18,1.89c0.49,0.18,1.02,0.28,1.54,0.28
				c0.74,0.01,1.46-0.21,2.07-0.63c0.97-0.71,1.54-1.84,1.56-3.04c0.58-1.87-0.06-3.9-1.6-5.11l3.14-4.93
				c4.53,0.84,9.19,0.72,13.67-0.36l3.06,4.28c-1.69,1.51-1.84,4.11-0.32,5.8c1.15,1.29,2.99,1.72,4.59,1.07l5.22-2.09
				c2.07-0.8,3.14-3.09,2.43-5.19c-0.36-1.07-1.15-1.94-2.18-2.4c-0.85-0.38-1.8-0.47-2.7-0.25l-0.83-5.04
				c2.51-1.52,4.8-3.38,6.81-5.51l3.12,1.37c-0.15,2.58,1.82,4.79,4.4,4.94c1.58,0.09,3.1-0.62,4.04-1.9l0.93-1.21
				c1.57-2.05,1.18-4.99-0.88-6.56c-1.41-1.08-3.3-1.27-4.9-0.49l-2.05-2.44c0.96-1.69,1.77-3.47,2.41-5.31l5.25-0.24
				c0.35,2.24,2.45,3.77,4.69,3.42c1.71-0.27,3.07-1.58,3.4-3.27l1.1-5.59C91.59,46.55,90.14,44.38,87.9,43.95L87.9,43.95z"/>
			<path id="Path_7545" d="M8.63,47.57l5.02,1.16c0.11,0.7,0.24,1.41,0.4,2.11c0.16,0.72,0.88,1.18,1.6,1.01
				c0.72-0.16,1.18-0.88,1.01-1.6c-0.18-0.82-0.33-1.65-0.44-2.45c-0.11-0.76-0.67-1.38-1.42-1.56L7.69,44.6
				c-0.72-0.17-1.44,0.28-1.61,1C6.06,45.7,6.05,45.8,6.05,45.9l-0.01,0.83c-0.01,0.93-0.77,1.68-1.7,1.69
				c-0.91,0-1.65-0.74-1.65-1.65c0,0,0-0.01,0-0.01l0.05-5.16c0.01-0.48,0.21-0.94,0.55-1.27c0.31-0.31,0.73-0.48,1.17-0.47
				c0.91,0.03,1.63,0.78,1.63,1.69c0,0.74,0.59,1.34,1.33,1.35c0.1,0,0.21-0.01,0.31-0.03l7.06-1.65c0.75-0.18,1.32-0.8,1.43-1.57
				c0.52-3.85,1.78-7.55,3.72-10.91c0.39-0.68,0.32-1.54-0.19-2.14l-3.37-3.95c-0.48-0.56-1.32-0.63-1.89-0.15
				c-0.07,0.06-0.14,0.13-0.2,0.21L14,23.06c-0.44,0.58-1.26,0.69-1.83,0.25c-0.02-0.01-0.03-0.03-0.05-0.04
				c-0.53-0.48-0.6-1.29-0.16-1.85l2.24-2.96c0.44-0.57,1.26-0.68,1.83-0.24c0.53,0.41,0.67,1.16,0.31,1.73
				c-0.4,0.62-0.21,1.45,0.41,1.85c0.06,0.04,0.12,0.07,0.19,0.1l4.71,2.04c0.73,0.32,1.58,0.13,2.12-0.46
				c2.13-2.34,4.63-4.33,7.38-5.89c0.67-0.38,1.04-1.14,0.93-1.9l-1.09-7.22c-0.11-0.73-0.79-1.23-1.52-1.12
				c-0.09,0.01-0.19,0.04-0.28,0.07l-1.03,0.4c-0.74,0.28-1.57-0.08-1.86-0.82c-0.01-0.02-0.02-0.04-0.02-0.07
				c-0.22-0.75,0.18-1.55,0.92-1.82l5.25-2.02c0.74-0.28,1.57,0.08,1.86,0.83c0.01,0.02,0.02,0.04,0.02,0.07
				c0.22,0.75-0.19,1.55-0.92,1.82l-0.14,0.05c-0.69,0.27-1.03,1.04-0.77,1.73c0.04,0.1,0.09,0.19,0.15,0.28l4.13,5.95
				c0.44,0.63,1.23,0.93,1.98,0.75c2.34-0.57,4.75-0.86,7.16-0.86l0,0c0.79,0,1.49-0.5,1.76-1.24l1.37-3.82
				c0.25-0.7-0.11-1.46-0.81-1.71c-0.02-0.01-0.03-0.01-0.05-0.02c-1-0.31-1.63-1.29-1.51-2.32c0.07-0.56,0.37-1.07,0.82-1.41
				c0.48-0.38,1.09-0.55,1.7-0.48l1.88,0.24c1.2,0.13,2.08,1.2,1.98,2.4c-0.09,0.9-0.74,1.64-1.61,1.86c-0.65,0.17-1.07,0.78-1,1.44
				l0.47,4.15c0.09,0.79,0.68,1.44,1.46,1.61c2.99,0.66,5.87,1.77,8.52,3.31c0.67,0.39,1.51,0.32,2.11-0.17l5.66-4.6
				c0.57-0.47,0.66-1.31,0.2-1.88c-0.06-0.08-0.13-0.14-0.21-0.2l-0.86-0.68c-0.62-0.49-0.72-1.4-0.23-2.02
				c0.01-0.02,0.03-0.04,0.05-0.05c0.54-0.57,1.43-0.63,2.03-0.13l4.4,3.49c0.62,0.49,0.73,1.4,0.23,2.02
				c-0.01,0.02-0.03,0.04-0.05,0.06c-0.54,0.57-1.43,0.63-2.03,0.13l-0.12-0.09c-0.58-0.46-1.42-0.36-1.88,0.22
				c-0.07,0.08-0.12,0.18-0.17,0.27l-3.03,6.59c-0.32,0.7-0.18,1.53,0.36,2.08c0.19,0.19,0.38,0.4,0.6,0.64
				c0.5,0.54,1.35,0.57,1.89,0.07c0.54-0.5,0.57-1.34,0.08-1.88c-0.1-0.1-0.18-0.2-0.27-0.29l2.2-4.78c2.15,0.72,4.48-0.45,5.19-2.6
				c0.55-1.64,0.01-3.44-1.35-4.52l-4.4-3.49c-1.72-1.4-4.24-1.2-5.72,0.46c-0.74,0.85-1.11,1.96-1,3.08
				c0.09,0.93,0.48,1.8,1.13,2.47l-3.97,3.22c-2.59-1.44-5.35-2.51-8.23-3.2l-0.29-2.57c1.38-0.76,2.31-2.15,2.49-3.72
				c0.25-2.65-1.66-5.02-4.3-5.35l-1.89-0.24c-1.31-0.16-2.64,0.21-3.68,1.02C44.82,1.84,44.16,3,44.01,4.27
				c-0.21,1.8,0.6,3.57,2.1,4.59l-0.78,2.17c-2.25,0.04-4.49,0.3-6.68,0.8l-3-4.32c1.71-1.49,1.88-4.09,0.38-5.79
				c-1.13-1.29-2.95-1.74-4.55-1.13L26.24,2.6c-2.08,0.77-3.18,3.05-2.5,5.16c0.35,1.07,1.13,1.95,2.15,2.43
				c0.84,0.4,1.79,0.5,2.7,0.29l0.76,5.05c-2.64,1.56-5.05,3.48-7.16,5.71l-3.02-1.31c0.25-1.47-0.33-2.96-1.52-3.87
				c-1.76-1.33-4.26-0.98-5.58,0.77L9.81,19.8c-1.32,1.7-1.06,4.13,0.58,5.52c0.84,0.7,1.92,1.03,3.01,0.9
				c0.69-0.08,1.34-0.34,1.9-0.74l2.03,2.38c-1.87,3.36-3.12,7.04-3.7,10.84l-5.18,1.22c-0.65-1.62-2.19-2.7-3.93-2.75
				c-1.16-0.03-2.27,0.41-3.1,1.22c-0.86,0.83-1.35,1.98-1.37,3.17L0,46.73c-0.02,2.39,1.9,4.35,4.29,4.37c0.01,0,0.03,0,0.04,0
				C6.42,51.09,8.21,49.62,8.63,47.57L8.63,47.57z"/>
			<path id="Path_7546" d="M39.27,40.26c0.66-0.34,0.92-1.14,0.58-1.8c-0.34-0.66-1.14-0.92-1.8-0.58
				c-0.01,0.01-0.02,0.01-0.03,0.02c-3.2,1.7-6.85,1.25-8.67-1.07c-1.04-1.38-1.41-3.16-0.99-4.84c1.01-4.1,4.67-6.99,8.89-7.01
				c1.73-0.01,3.38,0.76,4.48,2.1c1.54,1.95,1.52,4.86-0.05,7.41c-0.4,0.62-0.22,1.45,0.4,1.85c0.62,0.4,1.45,0.22,1.85-0.4
				c0.01-0.02,0.02-0.04,0.03-0.06c2.16-3.52,2.11-7.63-0.13-10.47c-1.59-1.96-3.98-3.11-6.51-3.11
				c-5.51-0.01-10.31,3.77-11.59,9.14c-0.58,2.46-0.03,5.05,1.51,7.05c1.67,2.03,4.19,3.18,6.82,3.11
				C35.88,41.58,37.67,41.12,39.27,40.26L39.27,40.26z"/>
			<path id="Path_7547" d="M65.26,28.25c0-2.78-2.58-5.03-5.76-5.03s-5.76,2.26-5.76,5.03s2.58,5.03,5.76,5.03
				S65.26,31.03,65.26,28.25z M56.42,28.25c0-1.3,1.38-2.36,3.08-2.36s3.08,1.06,3.08,2.36s-1.38,2.36-3.08,2.36
				S56.41,29.55,56.42,28.25L56.42,28.25z"/>
			<path id="Path_7548" d="M49.72,51.26c0-3.41-2.76-6.17-6.17-6.17s-6.17,2.76-6.17,6.17c0,3.41,2.76,6.17,6.17,6.17l0,0
				C46.95,57.43,49.71,54.67,49.72,51.26z M40.06,51.26c0-1.93,1.56-3.49,3.49-3.49c1.93,0,3.49,1.56,3.49,3.49
				c0,1.93-1.56,3.49-3.49,3.49C41.62,54.75,40.06,53.19,40.06,51.26L40.06,51.26z"/>
			<path id="Path_7549" d="M67.17,48.75c0-2.65-2.15-4.8-4.8-4.8c-2.65,0-4.8,2.15-4.8,4.8c0,2.65,2.15,4.8,4.8,4.8l0,0
				C65.02,53.55,67.17,51.4,67.17,48.75z M60.25,48.75c0-1.17,0.95-2.12,2.12-2.12c1.17,0,2.12,0.95,2.12,2.12
				c0,1.17-0.95,2.12-2.12,2.12l0,0C61.2,50.87,60.25,49.92,60.25,48.75z"/>
			<path id="Path_7550" d="M49.6,70.33c2.6,0,4.7-2.1,4.7-4.7c0-2.6-2.1-4.7-4.7-4.7s-4.7,2.1-4.7,4.7
				C44.9,68.22,47.01,70.32,49.6,70.33z M49.6,63.6c1.12,0,2.02,0.91,2.02,2.02c0,1.12-0.91,2.02-2.02,2.02s-2.02-0.91-2.02-2.02
				l0,0C47.58,64.51,48.48,63.6,49.6,63.6L49.6,63.6z"/>
			<path id="Path_7551" d="M28.56,62.42c2.67,0,4.84-2.17,4.84-4.84c0-2.67-2.17-4.84-4.84-4.84c-2.67,0-4.84,2.17-4.84,4.84
				c0,0,0,0,0,0C23.72,60.25,25.88,62.42,28.56,62.42z M28.56,55.42c1.2,0,2.16,0.97,2.16,2.16s-0.97,2.16-2.16,2.16
				s-2.16-0.97-2.16-2.16C26.39,56.39,27.36,55.42,28.56,55.42L28.56,55.42z"/>
			<path id="Path_7552" d="M55.82,40.83c0-0.74-0.6-1.34-1.34-1.34H53.3c-0.74,0-1.34,0.6-1.34,1.34c0,0.74,0.6,1.33,1.34,1.34h1.18
				C55.22,42.16,55.82,41.56,55.82,40.83z"/>
			<path id="Path_7553" d="M37.5,65.57h1.22c0.74,0,1.34-0.6,1.34-1.34c0-0.74-0.6-1.34-1.34-1.34l0,0H37.5
				c-0.74,0-1.34,0.6-1.34,1.34C36.16,64.97,36.76,65.57,37.5,65.57z"/>
			<path id="Path_7554" d="M26.22,46.07c0.74,0,1.34-0.6,1.34-1.34s-0.6-1.34-1.34-1.34c0,0,0,0-0.01,0h-1.17
				c-0.74,0-1.34,0.6-1.34,1.34s0.6,1.34,1.34,1.34c0,0,0,0,0.01,0H26.22z"/>
			<path id="Path_7555" d="M50.01,22.64c0.74,0,1.34-0.6,1.34-1.34c0-0.74-0.6-1.34-1.34-1.34h-1.63c-0.74,0-1.34,0.6-1.34,1.34
				c0,0.74,0.6,1.34,1.34,1.34H50.01z"/>
			<path id="Path_7556" d="M58.91,58.53c-0.74,0-1.34,0.6-1.34,1.34c0,0.74,0.6,1.34,1.34,1.34h1.8c0.74,0,1.34-0.6,1.34-1.34
				c0-0.74-0.6-1.33-1.34-1.34L58.91,58.53z"/>
		</g>
	</g>
</g>
</svg>
